<mxfile host="app.diagrams.net" agent="Mozilla/5.0 (Windows NT 10.0; Win64; x64; rv:142.0) Gecko/20100101 Firefox/142.0" version="28.2.3">
  <diagram name="Страница — 1" id="NJOWBk9crCNPuZko-Roy">
    <mxGraphModel dx="1426" dy="821" grid="1" gridSize="10" guides="1" tooltips="1" connect="1" arrows="1" fold="1" page="1" pageScale="1" pageWidth="1169" pageHeight="827" math="0" shadow="0">
      <root>
        <mxCell id="0" />
        <mxCell id="1" parent="0" />
        <mxCell id="IzZmmxG_ityrWe777RlB-6" value="" style="image;sketch=0;aspect=fixed;html=1;points=[];align=center;fontSize=12;image=img/lib/mscae/Docker.svg;rounded=1;" parent="1" vertex="1">
          <mxGeometry x="330.24" y="130" width="109.76" height="90" as="geometry" />
        </mxCell>
        <mxCell id="IzZmmxG_ityrWe777RlB-52" style="edgeStyle=orthogonalEdgeStyle;rounded=1;orthogonalLoop=1;jettySize=auto;html=1;exitX=0.5;exitY=1;exitDx=0;exitDy=0;entryX=0.5;entryY=0;entryDx=0;entryDy=0;curved=1;" parent="1" source="IzZmmxG_ityrWe777RlB-44" target="IzZmmxG_ityrWe777RlB-46" edge="1">
          <mxGeometry relative="1" as="geometry" />
        </mxCell>
        <mxCell id="IzZmmxG_ityrWe777RlB-55" style="edgeStyle=orthogonalEdgeStyle;curved=1;rounded=1;orthogonalLoop=1;jettySize=auto;html=1;exitX=1;exitY=0.5;exitDx=0;exitDy=0;" parent="1" source="IzZmmxG_ityrWe777RlB-44" target="IzZmmxG_ityrWe777RlB-45" edge="1">
          <mxGeometry relative="1" as="geometry" />
        </mxCell>
        <mxCell id="IzZmmxG_ityrWe777RlB-44" value="&lt;font style=&quot;font-size: 14px;&quot;&gt;Repository (C#)&lt;/font&gt;" style="rounded=1;whiteSpace=wrap;html=1;fillColor=#dae8fc;strokeColor=#6c8ebf;gradientColor=light-dark(#0080ff, #ededed);" parent="1" vertex="1">
          <mxGeometry x="520" y="240" width="160" height="80" as="geometry" />
        </mxCell>
        <mxCell id="IzZmmxG_ityrWe777RlB-45" value="&lt;font style=&quot;font-size: 20px;&quot;&gt;БД&lt;/font&gt;" style="shape=cylinder3;whiteSpace=wrap;html=1;boundedLbl=1;backgroundOutline=1;size=15;rounded=1;fillColor=#f8cecc;strokeColor=#b85450;gradientColor=light-dark(#ff8080, #ededed);" parent="1" vertex="1">
          <mxGeometry x="720" y="240" width="60" height="80" as="geometry" />
        </mxCell>
        <mxCell id="IzZmmxG_ityrWe777RlB-53" style="edgeStyle=orthogonalEdgeStyle;rounded=1;orthogonalLoop=1;jettySize=auto;html=1;exitX=0.5;exitY=1;exitDx=0;exitDy=0;entryX=0.5;entryY=0;entryDx=0;entryDy=0;curved=1;" parent="1" source="IzZmmxG_ityrWe777RlB-46" target="IzZmmxG_ityrWe777RlB-50" edge="1">
          <mxGeometry relative="1" as="geometry" />
        </mxCell>
        <mxCell id="IzZmmxG_ityrWe777RlB-46" value="" style="rounded=0;whiteSpace=wrap;html=1;comic=0;enumerate=0;treeFolding=0;resizeHeight=0;autosize=0;movableLabel=0;backgroundOutline=0;metaEdit=0;collapsible=0;dropTarget=0;fixDash=0;snapToPoint=0;portConstraintRotation=0;noLabel=0;shadow=0;gradientColor=none;strokeColor=none;" parent="1" vertex="1">
          <mxGeometry x="440" y="360" width="160" height="80" as="geometry" />
        </mxCell>
        <mxCell id="IzZmmxG_ityrWe777RlB-48" value="&lt;font style=&quot;font-size: 14px;&quot;&gt;Analytics (JS)&lt;/font&gt;" style="rounded=1;whiteSpace=wrap;html=1;fillColor=#dae8fc;strokeColor=#6c8ebf;gradientColor=light-dark(#0080ff, #ededed);" parent="1" vertex="1">
          <mxGeometry x="80" y="360" width="160" height="80" as="geometry" />
        </mxCell>
        <mxCell id="IzZmmxG_ityrWe777RlB-54" style="edgeStyle=orthogonalEdgeStyle;curved=1;rounded=1;orthogonalLoop=1;jettySize=auto;html=1;exitX=1;exitY=0.5;exitDx=0;exitDy=0;entryX=0;entryY=0.5;entryDx=0;entryDy=0;" parent="1" source="IzZmmxG_ityrWe777RlB-49" target="IzZmmxG_ityrWe777RlB-44" edge="1">
          <mxGeometry relative="1" as="geometry" />
        </mxCell>
        <mxCell id="jcSyX-Xs3CRRQOm1wfht-4" value="Rest API" style="edgeLabel;html=1;align=center;verticalAlign=middle;resizable=0;points=[];fontSize=20;rounded=1;" vertex="1" connectable="0" parent="IzZmmxG_ityrWe777RlB-54">
          <mxGeometry x="-0.0786" y="1" relative="1" as="geometry">
            <mxPoint as="offset" />
          </mxGeometry>
        </mxCell>
        <mxCell id="IzZmmxG_ityrWe777RlB-49" value="&lt;font style=&quot;font-size: 14px;&quot;&gt;WebSite (React + R3F)&lt;/font&gt;" style="rounded=1;whiteSpace=wrap;html=1;fillColor=#dae8fc;strokeColor=#6c8ebf;gradientDirection=south;gradientColor=light-dark(#0080ff, #ededed);" parent="1" vertex="1">
          <mxGeometry x="80" y="240" width="160" height="80" as="geometry" />
        </mxCell>
        <mxCell id="IzZmmxG_ityrWe777RlB-59" style="edgeStyle=orthogonalEdgeStyle;curved=1;rounded=1;orthogonalLoop=1;jettySize=auto;html=1;exitX=0;exitY=0.5;exitDx=0;exitDy=0;" parent="1" source="IzZmmxG_ityrWe777RlB-50" target="IzZmmxG_ityrWe777RlB-58" edge="1">
          <mxGeometry relative="1" as="geometry" />
        </mxCell>
        <mxCell id="IzZmmxG_ityrWe777RlB-50" value="&lt;font style=&quot;font-size: 14px;&quot;&gt;Notification (C#)&lt;/font&gt;" style="rounded=1;whiteSpace=wrap;html=1;fillColor=#dae8fc;strokeColor=#6c8ebf;gradientColor=light-dark(#0080ff, #ededed);" parent="1" vertex="1">
          <mxGeometry x="360" y="480" width="160" height="80" as="geometry" />
        </mxCell>
        <mxCell id="IzZmmxG_ityrWe777RlB-57" style="edgeStyle=orthogonalEdgeStyle;curved=1;rounded=1;orthogonalLoop=1;jettySize=auto;html=1;exitX=1;exitY=0.5;exitDx=0;exitDy=0;entryX=0;entryY=0.75;entryDx=0;entryDy=0;fontSize=19;" parent="1" source="IzZmmxG_ityrWe777RlB-48" target="IzZmmxG_ityrWe777RlB-44" edge="1">
          <mxGeometry relative="1" as="geometry" />
        </mxCell>
        <mxCell id="jcSyX-Xs3CRRQOm1wfht-14" value="Rest API" style="edgeLabel;html=1;align=center;verticalAlign=middle;resizable=0;points=[];rounded=1;fontSize=20;" vertex="1" connectable="0" parent="IzZmmxG_ityrWe777RlB-57">
          <mxGeometry x="-0.3947" y="15" relative="1" as="geometry">
            <mxPoint x="19" y="-6" as="offset" />
          </mxGeometry>
        </mxCell>
        <mxCell id="IzZmmxG_ityrWe777RlB-58" value="" style="rounded=0;whiteSpace=wrap;html=1;strokeColor=none;" parent="1" vertex="1">
          <mxGeometry x="80" y="480" width="160" height="80" as="geometry" />
        </mxCell>
        <mxCell id="jcSyX-Xs3CRRQOm1wfht-8" value="" style="shape=image;imageAspect=0;verticalLabelPosition=bottom;verticalAlign=top;rounded=1;image=data:image/png,iVBORw0KGgoAAAANSUhEUgAAAT8AAACeCAMAAABzT/1mAAAAzFBMVEX3giL////8///zgiT3eQD1giD+/vr3ewD3gSD3fxbyeQD+7d/949X1fAD4p2/7xJ/2nVr807r3u5Hygx/8yqz3jkD2gBD4oGD41Ln87+L6t4j82cH7xqP83cf79u34///5rXj0izX6uIr7+/PxhCn0hBr5zrD46dj2lkn5pWv4xp75v5fyom3wlU3zoFz0uo30kTr7lk/14sz6xpv2sXT0mEv89O/vizD78N76vZn32bvznVT2mFb42cb5oWb7rXX0bgD67OX80av6rYDO+4PFAAAQNklEQVR4nO2dC1PbuBbHY1myHmCSYjBxSOy8E0IhNEtpltLS0u//ne45khO/EpIU2jv3jv6zM7s4sSz9fKTzkGBrNSsrqz8n9i5fsbKysrKysrKysrKysrKysrKysrKysrKysrKysrKysrKysrKysrKysrKysrKysrKysrKysrKysrKysrKysrKysrKysrKy+osSoEPvkdxIli4o+dpd6fOUzIkJwWqstk8PBH5/a49Q21rRd/rbn8GE6Yy/pXkGn5j2i39ERwjFQ7fXG/ocn703RvmxPaujLphhLz/W2/rCzU6AYtrvt1Y6uT33FQ0E2+OP+8iTVqvf2txHwW77rf6cbf6UyWf4tP+0Fa8ru9in/vxpc/dld4697TeK/Qz8u+vjeOB5Xtw5HfIgCHaPQoseE6NHbhqUy/TC5StvOe3LMyFOKrgBHt0dhdLd/VB+SRwy2GxjgjehNSfcPHzmT/BZp9uNV0WmO9/oxtaFZ7rcLjydnnc8GIGTwCgc4s2GfI9RmDuPHU832KEGuYrSJ+zB7wSe5ngGoge3wdPbbI95z5twS7x5rXH9No4/3GzGjC7w0zw/xnK26jJ1pHtDBm7VhBmTH8lAj66eEXKl+idJgJuD8HAUJL5Q7n5/JQv4GXW4sWg/Si9cql33yhP8XvKAPcIn44sgy8882AWef4BuxlvWOP8MWw23zN8qv8ANhbv+tjD8oDfPsgJABLSZTpm6n11VTZgNhHRan86frsYe8TwneaaH8zPdP5TfJByNwrA2PWkOdL+9xtbFf6V35SfCWSNDteIH/aeVNYyxICY4VQr8wnGSOCS6oSEDx8KHLwnOwKstPSjp7fx+cnwQ+D06bOo3H4tdb+73+dX4BE3+dDV6Jvht5Hwv8fMWAGBQnQYMeuw5TSfHjwk1h3dOJgF3UwcAsxmeMRjusRC9B78j39woWKBecHIk7V13/j6/oTwH3a3nqxg2wXguSvzIPfSDnFRcmUthppL7/Pxl8hwmrOO5WROMXhqHsGMUWu/HD5ZxppbQb2+wJfhY6/f5jcQI/UWwGiw7AVshZX7OZxzEJS+3wWTskMl5kuenHgFf0vWzPgvXxZU8ud3HAN+Pn+7fPUwFD9786zP4DfN3Yxcq9ndzhuvIqNyGvAXfen0DnnbNT9wgzYgWTJXPwR07x2qnI3xnfq7wwfy8pM3dV5/8p/k5T0/gA5LnsgH5TXi500aeH31EhzwvhktiOMAF4Nzd7YLfyI8U7c+lMUYxTT4U2TVRw1AsTzTPj7lucZnK+MFEwqZfIxlutr+GWiaeVx4BC6OERCrHT7Chjn6HJZcHVKGVcWUBqOpd7Q+ai9C5dVSGlEmGEmwLP/hYFCwx4wfY4fZX14Jt/Og4GThxUFiIXZi+DpnxjB88+T6BWPuo7CpkC5uN1X+JXy70ElJRHoZc5RP6jB98rHxf5YsVKT9olHHF4bNiKSArPeB/8Sv8csPUBHSDhh9v4Dzo5tkLl48hzpvSnP0F9BLWG3JWHqr4os3yfLcHeVd+wlU6BznTl8DkpN877cQQjg6WH67kOp5I+QUiHF4fQfBwNP4Mrzoo8IO4eHS6GDheNP7qowXrD5m86Xafu3pef7qH/2xjxFR/7moNMZzT/KT/QDAEyfNjIXjfiMocPxY+YK7XLXNifqzTbL+2S+/rP1gPLnhJd4SXGBsFl5CSe0kCeTmsPI3VNDH8Aq5aXmIeljTZylZSfi69f8AyBub1HVemyyfzT7Gpc/hJXusyh35hRk6DiRW/cIwh9Ci3tLoAznNe/Dw/cafvrpSamDrGIsYjP4jf7+W/ef9BX/DKwGT0AbuJYcKQaNyuf9PFjZVDTO1PzTBlx4wKKERfZIGf+geRxOgdPRKfp3RFeArpV9KD74Z9YJ+k/EyXG2DSKT/RwOt5Dyz8MXzxieX4CT0CQiqBTg2+62BYsz+/bz946IPUMu1M54f+OVNlHa/kH/5Uj2ZmXhsbxvjTqQ/LGJ9GaGk9k5QDP897UGBKkyv42qkHGSmJUi+C/LxEdeHDkyHr9ZGvE6fZfKBO9cIEXx01xmdnZ03tKNtnWlMw05SfHMHMJM0cAOFDbBDxWp5feIqNDypmxsJ/cVJ4B8zf2FRN6y9Jym9Qv67nNZuWrbycf/BerIPRNHajemwvZgihRjtWa37k4XMCEUIohKDTGMO1F6onqbG/UeI80nAkJO/9xKE80jI/MQLfQo3/oKFCyWz+CvDAHkzgzLLAIr3kzC/w02ZGqmYmwi5+4FQNcys/J6uFpj87xQvJONzI7yfyE/BI3tXBX9wzwZTQoZWeaiCXP+oFSaT8iPewIAuN3mXhV/SC3lTfqPl5jxCo1QSGjfIGfwYkJX5Y6mbhCXbyQugYCULNtf8Q4S28E8iE1r1VbbjwxPL8alxnusdVfqMr/dC7A/jtVLNs5qn9/VAYZExbEwJPTBarugXmcrBypatooN9o0ljxwzu9u9Xo1De8MOZrfqDpaNVFXbN71L40xy/XhWr8J2Ftg7dJmuu8NvCXsNb6BX4C3YRDOpWVnomv2oIaOwOYt/OLm4+XnUmMTjBJovtwNWyFHtCZ0FHao0/IryVz/LIG5Ve9DgUy49dZx5DiE/DznAAh7c8PsKNfClN+TD7B2vICGUXe/tRE86usf66cYrvk+1/gh47V/Hsy++zLdc4tG1eg2zToE6KH36mrjB/JFlSh0NUk37P5Sy6y3MGf4ELaPZCf/I596vrmNQQcIkWcvkV+utha3Sph8k4P6eov8DMLp17AovHUF+vUw+QEqx6ZTLMdZvyiXNLuX6LT1YPS/pcMcrmTseQxPYyfKx+w02llxcV9pViW+FHNr2p/gt1pB3DyF/h5nePFJBoYE4TUY0vhPeWXs79mlp4HJuE8XvGDOZULHeQzfniERA/hhxt5GIuaL37GV8CDEr+J5lf1H0zbn/M2fqn/XTnmLfwmPxSl4D9mAyxEJgu6eVuS9Qr8wDe2ss4xcYFvIg5TfsUdSlgAkcSB/Ex5aDUFaRt6d1G2P+0/NvL7hFOKvMV/pEkRpF/eq/xM/Mc4DToJzrx/6Kbin5BF+/OcfOeYTvwcXbg29pd/8wa9zhIOsT8RxnpfW19XR8S8niK/jraAKj/xXfN7Q/xCFkyGqLuBsw8/l+mtV1i5hsWtfQiBKaX+6K40f5Nefts2xKa84YqfM8313BU6ksQE7wB+AWSTsCoPdDQvptCzD7zEj1G941WNn12J0ZbnDN8Q/10qoYWliK38CvVTOdUzfZ7VjpngqtcaL6J0kz3Pb5AzUyZ8fGUOIGXG/kb5ykkYr5AeMn/RA4MNXUkIrOUcpnJjVOInwjo+q5qmifBaf3BA/ruBnxla+Bo/p1A/oBgGk+N1NS+gvfESF4J1NrPmRwrnD6r88gV10wVyMD8hIHcml3QYSArpd2zea37+ymdSaG79RLXFMP8sv/DK7JymF6Q7NnWluDO+/tUqzd/8/gdjyM8ha35OWLE/HS4exE9n4CQeMQEzw4Nk263wm+ryTsXNMo5VKLLHFua78hMjTeGr7g6TvQi9UDyb+qEPgXWOH6YGDzn7k67mh+ufCNsVfiMdXX851P5qErNYcsuH/rX+Vq3ED9LmWLu8sLTjanJ3cnpA/e89+AV4usJL5mb24FkJyEBHyuyA5P0vhihefv1jX7ApRMq4XpPyW4fpaMKD+QWhCaGHGOfFofFrhfozRwdMJqq00yZ1WcLZ7X5f48f1ecxD+Ll0ht2BO2vCpWNcvWdAz0UseX6qrv1v5qexqAmjinwMe+fYRn7rQZzrEiDeehg/4TfxtIuCbMxzPtAN/Py5Xpe/lGqbaozb8tEh+0dlkccfIQQwUtH9+TFTz0UMwSgYOMkgDoNVdfXcWfODbAPjv4yfkH0NXmEbetLlK8eyi2NcHM7PDa8gfCW39F/th9Nb8vu/YNr4WuuqcNZIMB2zzfY4wbHd/uKZOZj6sioD7sFPBDh2DJuEvNCzl64gyYscv6/EG5B+7sgJ1/lvX6agE6+dexjVVc5rdVj+i7RdGUNA2vwxIc5gFVXJ4v75WNcsiycN+LUes3vI+YPd2s0PmnvAHR8Yj+tjRkvWR4mYGmf8RIg5Ta7swRS+8OQcHaQQA6zl0NS9sICpyMMzGWLj+ocjzZ1UKfCD/lyCAQ5G4IbXvS/yY+cevOdkRrODx7AY62OhL3zXOZ4/wK+D5zfqfKhnJHHWGxDMjTN+NYUHzLxhUMSwMAUFfonZ3WrHiDGwZBj/UhdSKvx0/b61lR8eWCNJE4Kok838XKojZZjja3cmVQcD1ngPeu/ODzwDnj/gkM1dYAK0RDNi+oxnLn7G2jT+QM3ZDCbw3BZWO8wCf4UWke6GCBEAETCilj5TU+F3oa3cFH1ElR+EPriMeBBtrrYyi/xEEB6jsXm3JuoXTErdVdwDgNRzVwHhnfmZSxHEU8JF9+t0KaTDTKp54mX+Fxb2JW5DNiSmzaymXnCfc7E6e66wXuqc8MAVLBDGpx+Z8Zb5sUC7ZmxHBhAssBK/dIfDcR7XNfoiP4wUjtDek9nQ91WoeGOhqybPVPmjp9nljhDwjfxIiZ8YOqvxQfaOZ7FPfJ+qu05C7gcZP3DUCZ4z7nIlqQrwEAUe+DQzRrBPeku45dOQ05HOpJK0nlDhpyvIpMMoxOhqGFT4mQMyjnO12lZY88vO+8kFbhCQwaLeP21P9J5ydPu5dXYcE1LdW3pHflfG/vLXdCHegZwdpk5EkEv0oTmBIOJ6pO0vHRijc50VR+N2u4NH353BdHXGoCZ4X9ezH/BDrCoCkHS4gY4OM35u2NVfHVy26+0O4JOa39f1VqHQj/WIXK9m8is+bpb1mjHainEPwiTquBntxQPHHMXfzQ9v2EdJ5TSDNiLnp58//MXRMyRn+FU2jExpH/4Z9PkQazDtVXeEusfjA+mr8ZLFHc+3cgGrvik7Apxk2VtvA4RzbHAdXbtStcl653Wk5y9WWjLj8h+d4ka6bGAto12ok4fB6cQh6W9y5PZtibPYwY/DzNpPyb+V/fOrCHRZ4KfmS7j2grVOWIpn+kh+MmjeUdY7iqLlPCvZq+EsNh0m3uREBflamwhYfZmkHy66ueNw8j6OoqN1dRCA0e+T9DdWgJ9g/iM8P/vlIyG70dFRlNsIEo3lzyjqF05MgtNQvV9n3xaTqKBl1Nl1BIGHe2pUPYgnKah4GVwFXNOJD8wYzj726/2TgEsXBopfXn9PuIKqm+68ft2/GlJZ/M094MDV+a/+7Lp/gh/myOIzc8fd0HHQ4Un/+vq6/wsPGTJV+Fy4pRswPqn0uubCI0MfC70l7TwEVBP7amdLmxqXWHrZeiu8dsnDUeXFpPdK5Yc7f5mkhlYY8td+I/F/WBBTuK/8SqHrBng4dTMjuc/vIqLwNz+hnf9HflZWVlZWVlZWVlZWVlZWVlZWVlZWVlZWVlZWVlZWVlZWVlZWVlZWVlZWVlZWVlZWVlZWVlZWVlZWVlZWVlZW/5dy31Ms/R9HsHdt9TeV/bGEP9id/wDsfECp3SF7EQAAAABJRU5ErkJggg==;backgroundOutline=0;" vertex="1" parent="1">
          <mxGeometry x="440.5" y="360" width="159.5" height="80" as="geometry" />
        </mxCell>
        <mxCell id="jcSyX-Xs3CRRQOm1wfht-13" value="" style="shape=image;imageAspect=0;verticalLabelPosition=bottom;verticalAlign=top;rounded=1;image=data:image/jpeg,/9j/4AAQSkZJRgABAQAAAQABAAD/2wCEAAUDBAcGBgYIBgYGBgYGBwYIBwcHBwYGBgYGBgYGBgYGBgYHChALBwgaCQUFGCEYGhERExMTBwsiGCISGBASExIBBQUFBwYHDwgIDxwUEhQcHBwcHBwcHBwcHBwcFBwcHBwcHBwcFBQUFBwUFBQUFBQUFBQUFBQUFBQUFBQUFBQUFP/AABEIBHIHgAMBIgACEQEDEQH/xAAdAAEAAgIDAQEAAAAAAAAAAAAAAQIHCAUGCQME/8QAVxABAAEDAgQDBQIHCQwIBgIDAAECAxEEBQYSITEHQVEIEyJhcYGRFDI2QlKhsRUjM2Jyc3SywQkWFyQ0NVWSk7PR4SVDU1R1gsPwRWODouLxN8ImZKP/xAAbAQEAAgMBAQAAAAAAAAAAAAAAAgYBBAUDB//EADQRAQACAQMDBAEBBwMFAQEAAAABAgMEESEFEjEGEyJBUTIUFiNCUmFxgZGxJDNiwdHwcv/aAAwDAQACEQMRAD8A3LAAAAAAAAAAAAAAAAAAAAAAAAAAAAAAAAAAAAAAAAAAAAAAAAAAAAAAAAAAAAAAAAAAAAAAAAAAAAAAAAAAAAAAAAAAAAAAAAAAAAAAAAAAAAAAAAAAAAAAAAAAAAAAAAAAAAAAAAAAAAAAAAAAAAAAAAAAAAAAAAAAAAAAAAAAAAAAAAAAAAAAAAAAAAAAAAAAAAAAAAAAAAAAAAAAAAAAAAAAAAAAAAAAAAAAAAAAAAAAAAAAAAAAAAAAAAAAAAAAAAAAAAAAAAAAAAAAAAAAAAAAAAAAAAAAAAAAAAAAAAAAAAAAAAAAAAAAAAAAAAAAAAAAAAAAAAAAAAAAAAAAAAAAAAAAAAAAAAAAAAAAAAAAAAAAAAAAAAAAAAAAAAAAAAAAAAAAAAAAAAAAAAAAAAAAAAAAAAAAAAAAAAAAAAAAAAAAAAAAAAAAAAAAAAAAAAAAAAAAAAAAAAAAAAAAAAAAAAAAAAAAAAAAAAAAAAAAAAAAAAAAAAAAAAAAAAAAAAAAAAAAAAAAAAAAAAAAAAAAAAAAAAAAAAAAAAAAAAAAAAAAAAAAAAAAAAAAAAAAAAAAAAAAAAAAAAAAAAAAAAAAAAAAAAAAAAAAAAAAAAAAAAAAAAAAAAAAAAAAAAAAAAAAAAAAAAAAAAAAAAAAAAAAAAAAAAAAAAAAAAAAAAAAAAAAAAAAAAAAAAAAAAAAAAAAAAAAAAAAAAAAAAAAAAAAAAAAAAAAAAAAAAAAAAAAAAAAAAAAAAAAAAAAAAAAAAAAAAAAAAAAAAAAAAAAAAAAAAAAAAAAAAAAAAAAAAAAAAAAAAAAAAAAAAAAAAAAAAAAAAAAAAAAAAAAAAAAAAAAAAAAAAAAAAAAAAAAAAAAAAAAAAAAAAAAAAAAAAAAAAAAAAAAAAAAAAAAAAAAAAAAAAAAAAAAAAAAAAAAAAAAAAAAAAAAAAAAAAAAAAAAAAAAAAAAAAAAAAAAAAAAAAAAAAAAAAAAAAAAAAAAAAAAAAAAAAAAAAAAAAAAAAAAAAAAAAAAAAAAAAAAAAAAAAAAAAAAAAAAAAAAAAAAAAAAAAAAAAAAAAAAAAAAAAAAAAAAAAAAAAAAAAAAAAAAAAAAAAAAAAAAAAAAAAAAAAAAAAAAAAAAAAAAAAAAAAAAAAAAAAAAAAAAAAAAAAAAAAAAAAAAAAAAAAAAAAAAAAAAAAAAAAAAAAAAAAAAAAAAAAAAAAAAAAAAAAAAAAAAAAAAAAAAAAAAAAAAAAAAAAAAAAAAAAAAAAAAAAAAAAAAAAAAAAAAAAAAAAAAAAAAAAAAAAAAAAAAAAAAAAAAAAAAAAAAAAAAAAAAAAAAAAAAAAAAAAAAAAAAAAAAAAAAAAAAAAAAAAAAAAAAAAAAAAAAAAAAAAAAAAAAAAAAAAAAAAAAAAAAAAAAAAAAAAAAAAAAAAAAAAAAAAAAAAAAAAAAAAAAAAAAAAAAAAAAAAAAAAAAAAAAAAAAAAAAAAAAAAAAAAAAAAAAAAAAAAAAAAAAAAAAAAAAAAAAAAAAAAAAAAAAAAAAAAAAAAAAAAAAAAAAAAAAAAAAAAAAAAAAAAAAAAAAAAAAAAAAAAAAAAAAAAAAAAAAAAAAAAAAAAAAAAAAAAAAAAAAAAAAAAAAAAAAAAAAAAAAAAAAAAAAAAAAAAAAAAAAAAAAAAAAAAAAAAAAAAAAAAAAAAAAAAAAAAAAAAAAAAAAAAAAAAAAAAAAAAAAAAAAAAAAAAAAAAAAAAAAAAAAAAAAAAAAAAAAAAAAAAAAAAAAAAAAAAAAAAAAAAAAAAAAAAAAAAAAAAAAAAAAAAAAAAAAAAAAAAAAAAAAAAAAAAAAAAAAAAAAAAAAAAAAAAAAAAAAAAAAAAAAAAAAAAAAAAAAAAAAAAAAAAAAAAAAAAAAAAAAAAAAAAAAAAAAAAAAAAAAAAAAAAAAAAAAAAAAAAAAAAAAAAAAAAAAAAAAAAAAAAAAAAAAAAAAAAAAAAAAAAAAAAAAAAAAAAAAAAAAAAAAAAAAAAAAAAAAAAAAAAAAAAAAAAAAAAAAAAAAAAAAAAAAAAAAAAAAAAAAAAAAAAAAAAAAAAAAAAAAAAAAAAAAAAAAAAAAAAAAAAAAAAAAAAAAAAAAAAAAAAAAAAAAAAAAAAAAAAAAAAAAAAAAAAAAAAAAAAAAAAAAAAAAAAAAAAAAAAAAAAAAAAAAAAAAAAAAAAAAAAAAAAAAAAAAAAAAAAAAAAAAAAAAAAAAAAAAAAAAAAAAAAAAAAAAAAAAAAAAAAAAAAAAAAAAAAAAAAAAAAAAAAAAAAAAAAAAAAAAAAAAAAAAAAAAAAAAAAAAAAAAAAAAAAAAAAAAAAAAAAAAAAAAAAAAAAAAAAAAAAAAAAAAAAAAAAAAAAAAAAAAAAAAAAAAAAAAAAAAAAAAAAAAAAAAAAAAAAAAAAAAAAAAAAAAAAAAAAAAAAAAAAAAAAAAAAAAAAAAAAAAAAAAAAAAAAAAAAAAAAAAAAAAAAAAAAAAAAAAAAAAAAAAAAAAAAAAAAAAAAAAAAAAAAAAAAAAAAAAAAAAAAAAAAAAAAAAAAAAAAAAAAAAAAAAAAAAAAAAAAAAAAAAAAAAAAAAAAAAAAAAAAAAAAAAAAAAAAAAAAAAAAAAAAAAAAAAAAAAAAAAAAAAAAAAAAAAAAAAAAAAAAAAAAAAAAAAAAAAAAAAAAAAAAAAAAAAAAAAAAAAAAAAAAAAAAAAAAAAAAAAAAAAAAAAAAAAAAAAAAAAAAAAAAAAAAAAAAAAAAAAAAAAAAAAAAAAAAAAAAAAAAAAAAAAAAAAAAAAAAAAAAAAAAAAAAAAAAAAAAAAAAAAAAAAAAAAAAAAAAAAAAAAAAAAAAAAAAAAAAAAAAAAAAAAAAAAAAAAAAAAAAAAAAAAAAAAAAAAAAAAAAAAAAAAAAAAAAAAAAAAAAAAAAAAAAAAAAAAAAAAAAAAAAAAAAAAAAAAAAAAAAAAAAAAAAAAAAAAAAAAAAAAAAAAAAAAAAAAAAAAAAAAAAAAAAAAAAAAAAAAAAAAAAAAAAAAAAAAAAAAAAAAAAAAAAAAAAAAAAAAAAAAAAAAAAAAAAAAAAAAAAAAAAAAAAAAAAAAAAAAAAAAAAAAAAAAAAAAAAAAAAAAAAAAAAAAAAAAAAAAAAAAAAAAAAAAAAAAAAAAAAAAAAAAAAAAAAAAAAAAAAAAAAAAAAAAAAAAAAAAAAAAAAAAAAAAAAAAAAAAAAAAAAAAAAAAAAAAAAAAAAAAAAAAAAAAAAAAAAAAAAAAAAAAAAAAAAAAAAAAAAAAAAAAAAAAAAAAAAAAAAAAAAAAAAAAAAAAAAAAAAAAAAAAAAAAAAAAAAAAAAAAAAAAAAAAAAAAAAAAAAAAAAAAAAAAAAAAAAAAAAAAAAAAAAAAAAAAAAAAAAAAAAAAAAAAAAAAAAAAAAAAAAAAAAAAAAAAAAAAAAAAAAAAAAAAAAAAAAAAAAAAAAAAAAAAAAAAAAAAAAAAAAAAAAAAAAAAAAAAAAAAAAAAAAAAAAAAAAAAAAAAAAAAAAAAAAAAAAAAAAAAAAAAAAAAAAAAAAAAAAAAAAAAAAAAAAAAAAAAAAAAAAAAAAAAAAAAAAAAAAAAAAAAAAAAAAAAAAAAAAAAAAAAAAAAAAAAAAAAAAAAAAAAAAAAAAAAAAAAAAAAAAAAAAAAAAAAAAAAAAAAAAAAAAAAAAAAAAAAAAAAAAAAAAAAAAAAAAAAAAAAAAAAAAAAAAAAAAAAAAAAAAAAAAAAAAAAAAAAAAAAAAAAAAAAAAAAAAAAAAAAAAAAAAAAAAAAAAAAAAAAAAAAAAAAAAAAAAAAAAAAAAAAAAAAAAAAAAAAAAAAAAAAAAAAAAAAAAAAAAAAAAAAAAAAAAAAAAAAAAAAAAAAAAAAAAAAAAAAAAAAAAAAAAAAAAAAAAAAAAAAAAAAAAAAAAAAAAAAAAAAAAAAAAAAAAAAAAAAAAAAAAAAAAAAAAAAAAAAAAAAAAAAAAAAAAAAAAAAAAAAAAAAAAAAAAAAAAAAAAAAAAAAAAAAAAAAAAAAAAAAAAAAAAAAAAAAAAAAAAAAAAAAAAAAAAAAAAAAAAAAAAAAAAAAAAAAAAAAAAAAAAAAAAAAAAAAAAAAAAAAAAAAAAAAAAAAAAAAAAAAAAAAAAAAAAAAAAAAAAAAAAAAAAAAAAAAAAAAAAAAAAAAAAAAAAAAAAAAAAAAAAAAAAAAAAAAAAAAAAAAAAAAAAAAAAAAAAAAAAAAAAAAAAAAAAAAAAAAAAAAAAAAAAAAAAAAAAAAAAAAAAAAAAAAAAAAAAAAAAAAAAAAAAAAAAAAAAAAAAAAAAAAAAAAAAAAAAAAAAAAAAAAAAAAAAAAAAAAAAAAAAAAAAAAAAAyAipOXzu3qKY+K5RTHrNUR+0YmYjyvCJlwu7cU6DSRPvdRRMx5U1RVP6nT938VdJRMfgdqq/j8eZ+Hln5er2x6bLk/TDVza3DhrvazJXVGZYW1viprLuYsW4temergtTx5u92Z5tXyRPlFP8Aa3sfSNRdycvqPS4/zLYWbkR3qpj61RD8t3c9PRMxXqLcTHeOaOjW7WbxrL8/vutvdf0aph+SdVe7Tfu1fOapzLdx+nstv1S5+T1dhjitf92ydziHQU99Vb+9+arjHao76+zGPq1ymqqrvcrn/wA0omKp7xD2/dy39Tw/e+sfyw2KnjjZ477ha/X/AMCnjbaJ7bha/X/wa5zbo86Sminypg/dy39SP74x/TDZK3xdtlc4p11qZny7P029+0Vf4uqt/wCtDWbFX0j1ieq1Nyuntcrj7ZP3ct/UnHq+s/yw2hsa6zcz7u/bqx6VR2feK89ppn6TEtWvwu/5am9Tj9GqYfv0XEWv0/8ABa259szP7Xjk9O5o/TLYx+rcE8Wrz/lsvmUz82v2i8Qd3tT11EXafPNOHO6PxYv04i9p4uT65w079G1NPrd0MXqHS5PzDMkSl0DZ/E7QXaaY1ETZvTPWnvER9Xa9Bv2j1VMTa1Nr6TVET+tz8mnyY52tV1sWqw5Yia2cqK0V0zEYqpn5xMTlZ5NiJifAESDIAAAAAAAAAAAAAAAAAAAAAAAAAAAAAAAAAAAAAAAAAAAAAAAAAAAAAAAAAAAAAAAAAAAAAAAAAAAAAAAAAAAAAAAAAAAAAAAAAAAAAAAAAAAAAAAAAAAAAAAAAAAAAAAAAAAAAAAAAAAAAAAAAAAAAAAAAAAAAAAAAAAAAAAAAAAAAAAAAAAAAAAAAAAAAAAAAAAAAAAAAAAAAAAABkAMgKRPpOUx97i9y3zSaOmar96i1jPSZ6yx7xF4qUxNVGgt809Yi5P4ufKfo2MOky5Z2rDRz9Q0+GN7SyjqNRbs0zVcrpopjzmYiHVd88QNt0cz++e9qp/7PFUMLbxxFrtdP+Nai5n0t1TFv7nFTE58ubymfxf/ADeru6boE2je8qvrPVfbPbihknfPFDU3cxobVMUT2qq6S6ZuHEWv1U1e91FdWc/vcTPLH0cRVEfnc0z/ABJxSmZqx8OI/rfa7On6ZixfStavrGfU/qWtUzMzVcqmZn1qmf2q5jM4jH9qOWe+crN2cdKxw0+2O3u+wBBAAAAAAAAAAAAAt45sT961ublq5m1XV/rSpUjlmOsVdXp7VLRynNYrHdDsG18X7npao93fquxT+ZXPSmPSHdtl8VeSIjcLXLPTrR1Yrif0/wD7Ok/aT/8AL/8A+nX7nN1HScOX6dDSdc1GnjarYrZOMdu1sR7u/Tbqn82uYpq6uwUVRVGaZiqJ84nLVWiZjrTM0Y84mYr+yXYdh4z3HQTT7q9VctU/jU3pmqqYjyp9JcfVdBtTmkrNovVVcs7ZYbFz9fsInr36+jHfDXidpdTMU6qPweufzquzvOg19nUcs2a6bkTGeaJhw8unyY52tCzYNbgzR8ZftDJl4tsDIAAAAAAAAAAAAAAAAAAAAAAAAAAAAAAAAAAAAAAAAAAAAAAAAAAAAAAAAAAAAAAAAAAAAAAAAAAAAAAAAAAAAAAAAAAAAAAAAAAAAAAAAAAAAAAAAAAAAAAAAAAAAAAAAAAAAAAAAAAAAAAAAAAAAAAAAAAAAAAAAAAAAAAAAAAAAAAAAAAAAAAAAAAAAAAAAAAAAAAAAAEyjIInv8zPq/Fr9ys6eJm/VFumI/Gq6Md8a+JlFuJtbdTVcq7e9/Mifq98OlyZp2rDR1PUdPp4nvtG8fTv28b1pdDRVXqb1NMR5ZjP3MY8U+KF67NVG20Yp6xzz5+THe47hqNZXVc1N+q5VXOZpiZ5I+j8+ZmMR8EfLusmk6DTbfLKna/1PlmdsUcf2ffXa/VamqqrU3qq8zMzEzmIz5Pz09fxYwnP2/NEx6dHbrFY4iuysZc17TvMriMmXrEf3QrMeZBGTLzvE/SXuRb6SIyZZiu0eWJ2SIyZEUiMmQSIyZBIjJkEiMmQSIyZBIjJkEiMmS1Z24lONvtIjJkpE/Z7sV+lifl3RkmenzTmP7o22r+lSqY8+/q5TZd+1+guU16e9MxT+ZM9MfRxkR69ZT385p+cPDJipliaWjy9sGqyYZi9Z5hmDhTxPtXeW3uFPuq56c3lLImh1tq/TFVm5TXTMRMYnLVuqc94icdp7S5TYeItbttyK7F+a6ZxzW656Yjyo9XC1nQojnFK1dP9T3n45o/3bMxPomnHXDonCXiHpNbbpo1OdNe9KukVT8su6aTVU3ozR1pntMdpV3LgyYp2vC36fW4NRt7domX6BGUxLybQAAAAAAAAAAAAAAAAAAAAAAAAAAAAAAAAAAAAAAAAAAAAAAAAAAAAAAAAAAAAAAAAAAAAAAAAAAAAAAAAAAAAAAAAAAAAAAAAAAAAAAAAAAAAAAAAAAAAAAAAAAAAAAAAAAAAAAAAAAAAAAAAAAAAAAAAAAAAAAAAAAAAAAAAAAAAAAAAAAAAAAAAAAAAAAAAAAEmQBFVWHyvaim3TVXXMU26YzNUzjsfezG8RzK9c4+nnPo6vxhxjpdrtT8cXL0xOIpmJxPzdV4+8RqYzY0PxZzFVyJ7fRinUai5erqqvVzcmqZnrOXc0HSL5Zi2XiFV6t6jx4d8WDmfy5riXizU7rcn31c02J6RTEzDgqaardMxTV+8z3ie+FIiI7d/1GM9aus/qWfHpMeOPhHCk6jVZMnGSd5IimI+DpT5ZSSNiWtjAEAAAAAAAAAAAAAAAAAAAAAAAAAAAAGY8iPhzE1R8UfiT6T80nTzT+kb8SvNNVVUV3q5zT+Lyz93Z3DhDxA1O31RbvzNyxmMecxDpcRMdp6fPqmKY9Pq1cuhxZY/iQ3tNrs2KYnHO0w2Y2HfdNuNqm5YuRmY60TMZz9HL0TOOsYavbPu2o0N6m5ZuVRFP5kTOJZp4G49sbhRRb1ExZ1HbrPSqVU13SsmnnevML10r1Di1kRS/FneRSLny6eXzWiejkrGkRM+iQAAAAAAAAAAAAAAAAAAAAAAAAAAAAAAAAAAAAAAAAAAAAAAAAAAAAAAAAAAAAAAAAAAAAAAAAAAAAAAAAAAAAAAAAAAAAAAAAAAAAAAAAAAAAAAAAAAAAAAAAAAAAAAAAAAAAAAAAAAAAAAAAAAAAAAAAAAAAAAAAAAAAAAAAAAAAAAAAAAAAAAAAAAAAARkEo/aiZlxXEm+WdusVXLtdMVRE4pnzSrWbztCGTJXFWbW8Q/RvO5WdFYqu6muKKKfn1n5Qwpx3xxf3KuqjS1Ta0dMzFUxOJqhxHGnFd/dr1XNXizE9KKZmKZ+x13Pp0j9Hyn6rX07o8Y6xky/qUHrHX51N5w4Z2p+fvf7/0WjGZmM8s9pnvMpV5vu9PKPoZd2b2tXt22Vjis7RysK8xzSjtMV2g2rCwrk5kqf+RO30sK5MsbIrCuTJsLCuTJsLCuTJsLCuTJsLCuTJsLCuTJsLCuTJsLCuTJsLCuTJsLCuTJsLCuTJsLCuTJsLCuTJsLCuTLMRyLCvMczFt/pLifKwrzSczFqzau0m1Vk2a5t1xVFU0Vx/B1ROOqmTm9evpny+iU2tNeyY3hmJi1t5nb/DKvh/4hTb5dNulXXpFFz5eWWWLF2m5RTVbmKqKoiYmJzmJao5nznM+Uz3j6O/eHfHd3RV02NTXz2ZxETV1mmPkrfUuj8e5h/wBVw6N6g7bezqJ4+p/+/hnSEvzaDV29RapuWqorpqjPSYffP3q1MbTtK7VtFo3hYRlLDIAAAAAAAAAAAAAAAAAAAAAAAAAAAAAAAAAAAAAAAAAAAAAAAAAAAAAAAAAAAAAAAAAAAAAAAAAAAAAAAAAAAAAAAAAAAAAAAAAAAAAAAAAAAAAAAAAAAAAAAAAAAAAAAAAAAAAAAAAAAAAAAAAAAAAAAAAAAAAAAAAAAAAAAAAAAAAAAAAAAAAAAACJmQTKsRjzTE+riOJ97s7bpq7lyuImInEZ6zKVazee2Hnly1xUm1vEPnxVxBY2uxcru1xFcUzNNM96p9Ia+8T8Q6ndtTVVdrqpsZ+GnM4w+nFvEN3d9RVXdrmaKZ/e6e0R1cNK2dN6ZGOsXt5fOus9ZyaydsU7RCMRE/D2SDtq/wC5GTnYAZYAAAAAAAAAAAAAAAAAAAAAAAAAAAAAAAAAAAAAAAAEU0RVnPSfKUjExvwz7vZG0eZdu8PONb+23otaiqatPNURmZ6RE+bPO2a21qrcXLNUV0zEdY7dWrE9YxPZ3Tw54yr229TYuVzOmqmIiJ7Rn5q71PpcTHuU8rV0XrdtPtizzvEs+xHVZ+bQaq3qLdFy3VFVNURPSfk/RM+iszExxK+1tFo3hIiEsJAAAAAAAAAAAAAAAAAAAAAAAAAAAAAAAAAAAAAAAAAAAAAAAAAAAAAAAAAAAAAAAAAAAAAAAAAAAAAAAAAAAAAAAAAAAAAAAAAAAAAAAAAAAAAAAAAAAAAAAAAAAAAAAAAAAAAAAAAAAAAAAAAAAAAAAAAAAAAAAAAAAAAAAAAAAAAAAAAAAAAACsrPy6m7Taiqu5Vy2qImZmejHPiDiOZfLetytaGxXdvVRTFNNUx17zEdoa9cbcR3t3vzMVTFmJnFOemIl+/xJ4sr3LVV27VVUae1MxGJ6VOnx07dFv6V02MdPcyczPj+z5913rNs94xY42iN9/7rYienblFR29tvCq2j5b04hYVSJ27f5Y2SIGUUiAEiAEiAEiAEiAEiAEiAEiAEiAEiAEiAEiAEiAEiAEiAEiAEiAEiAEiAEiAEiEE7pVmsRO8c/SyKqc/DHeO0oGJjfyjj+Nu6/LIPhfxlVortrT6quZt1zjMz2+9m+xepuURXbmJpqjMT5NT89c+cdp84ZW8IuMImr8D1dcx0xbqqn9St9Y6bG3vY/wDWF09P9Zn/ALGX7nifx/Zl6I+aXxsxOevWPzZ8ph9lZid12AGQAAAAAAAAAAAAAAAAAAAAAAAAAAAAAAAAAAAAAAAAAAAAAAAAAAAAAAAAAAAAAAAAAAAAAAAAAAAAAAAAAAAAAAAAAAAAAAAAAAAAAAAAAAAAAAAAAAAAAAAAAAAAAAAAAAAAAAAAAAAAAAAAAAAAAAAAAAAAAAAAAAAAAAAAAAAAAAAAAABEyBmPViHxg4wzM6PS1xPWYuVUz29Yl23xL4lp2rR1Rbqj8IuxMUx59ejX+9dqu113K/x7lU1VfWVg6J0/3re5kjhUvUnVPap7OKeftWmMTnvHn6zKAWntitpivhRbXm9YmQBlAAAAAAAAAAAAAAAAAAAAAAAAAAAAAAAAAAAAAAAAAAAAAAAABNMxE9VrNddqqLlE8tyic0zHy6qDEY63vtfwnGS2Ou9fLPvhdxXTuWnpt3KojUW6cTEz8VUR54d4y1a4d3a5turt37WcxMRV/Iz1bH8N7ra3DS2r1uqJ5qY5seuOqm9X0M6bJ3VjiX0boPU41OLsvPyhywiJS5CwgAAAAAAAAAAAAAAAAAAAAAAAAAAAAAAAAAAAAAAAAAAAAAAAAAAAAAAAAAAAAAAAAAAAAAAAAAAAAAAAAAAAAAAAAAAAAAAAAAAAAAAAAAAAAAAAAAAAAAAAAAAAAAAAAAAAAAAAAAAAAAAAAAAAAAAAAAAAAAAAAAAAAAAAAAAAAAAABkVqBZ+Hc9xtaa3eru1RRFumZzP0fsYe8auI5i9+B6erNU495j5tnS6ec+Tthz+paudJh74++HROM96r3XXV3aq5m3aqn3ceVWJ6dHEzMz1npM949ERMUzVT5x1+0icr9hp24opHGz5dqsnflm8zvuAJRP1+Gt97gDIAAAAAAAAAAAAAAAAAAAAAAAAAAAAAAAAAAAM91PpmNp8ABvCXtXnwAMRP5QtW1fIAzvH0l8dv7gDCIAAAAlAxbn4sxxyTM4mMfjdJ+UT5u9eEHEk6DVU6S/cxYuz8NU9YzLo0RmYj1RRXVTVM0fwlqc0z9HhrcUZcM0mG907POHPGSJbX2L9NyZ5ZiYiInPl1fbLoPhFxBTuGj5LlUfhFqIiqJ7z6O9x2+ihZsU4bzSX1HR6n9pwxkhcRT2S8m0AAAAAAAAAAAAAAAAAAAAAAAAAAAAAAAAAAAAAAAAAAAAAAAAAAAAAAAAAAAAAAAAAAAAAAAAAAAAAAAAAAAAAAAAAAAAAAAAAAAAAAAAAAAAAAAAAAAAAAAAAAAAAAAAAAAAAAAAAAAAAAAAAAAAAAAAAAAAAAAAAAAAAAAAAAAAAAK1LK1xkHB8ab1RtuhvXa5xPLMURHeasdMNbdZq7upvXr92ea9cqmYmfKnyj69nefGfiCdZro0tmv9603WrHaa+0w6BTGIXDoujjHi9232+feouo+7m9ms+EV055Z/O/O9J+i8oS7vdG2yr9szPKAHnEbMyAMogAAAAAAAAAAAAAAAAAAAAAAAAAAAAAAAAAI5oIqhRHTz7fLu9aY6/b0yV2/S+nN1wTOJx3n0VuVzTT8cxNvyimP3z9XVyeycN63cJj8D0t6bc+dWaa/rmfJp5tTixTzPh6YdLqsnFY8uO5o7T0n0M9e0u96Xwn3Gqnmr1Nq3P8A2dVOavpl1niPhjXbVXzXrNfu5nEXO9NWPSPJ5Y+pafLO0S2LdK1WON71cVM4mIx1laeisVxVVTMJ85+bd+MxvDSvEVnb7AGEAAAAAA253eleYJmcTjvjp9UU5imJ6e8/OnymEifdEobTWeHN8E71O2bjau5mLNyYi7THnnzw2Q0Oqo1Fqi5bnNFymJiflMNU6ozMYnE+TNPgfv8A+EaavR3a83bH4mZ6zR5qz13R/H3qrl6Y6jz+zyyZSlFKVYXcAAAAAAAAAAAAAAAAAAAAAAAAAAAAAAAAAAAAAAAAAAAAAAAAAAAAAAAAAAAAAAAAAAAAAAAAAAAAAAAAAAAAAAAAAAAAAAAAAAAAAAAAAAAAAAAAAAAAAAAAAAAAAAAAAAAAAAAAAAAAAAAAAAAAAAAAAAAAAAAAAAAAAAAAAAAAJkRIKzVMT2cDxzvX7naC7cx8VVMxTOccszE9XPROYYW8cd99/qaNFbq+Cmn48dub0lt6DB72eKzzDndU1X7Np5vE8/TG+uu1XL9d6ur+Eqmeb1mZUqr69ILcc373V2o7T6qz5/L+xfuytPhXw+V5Mnu2nJb9Urc/yOf5KhtCHdKef5J51RmZYW5znVBhbnOdUBbnOdUBbnOdUBbnOdUBbnOdUBbnOdUBbnOdUBbnOdUBbnOdUBbnOdUBbnOdUBbnOdUBbnOdUBbnOdUN0q1+58LxUZfPOE8zPdH4SmaW4qvTVmceaZpqie0fe+U1Tj4Y6+qtdcRHXmrq9I6szjmsd8zw84t3T2RXl96ZiZmPOPuVmrv1iHJbJw9uO4TTFmxVTTV2qmJjpLIXD3hNTy017hcnPScR+xz8/VNPh4l19L0TU5+WK9NauX/4C1XdnOOlMy7jw34dbhrZt1XP8Wt1T8VU/jUx68s92aNo4c0Wioj3GnooxjrMRmceblqbcdJicY8o7Sr2p65ef+3ws+i9NUpO+Xl0zh3wy23QzTXXTOpvx3rr7TP8js7db09NqI93TRRjpHJTFPT06P1ZUq6uRbUXzTvaVjpp8Wnjaldirp1nq4fi7areu0N6i50+CuaZxnlmImcw5muMw4rizUxY2/UVz5W6v1xMI4Jt7kbGs7ZwTNo+msNimKblVE+ddyM+nJOITzYy+U189yao/Tr/APumV5fQ8FIikS+R6iInLMrc5zqj1eS3Oc6oC3Oc6oC3Ojn+SA3ZiZhbn+RzqjG0M90p5umfTzcxwXule3a+zfirlpmqImPKqmZ6xLh7dPNPLPaSc3Jin8WLcxMT9EcmGuak0vG8PfS5502SMlOJbW7drI1Fi3dpjEXIiYj0zD9NNUz3jDH/AIL79+G6GbNyr98sVYiPPkjtLIGesPnuoxTjyzX8PrGjz+9hrfdaAgeTZAAAAAAAAAAAAAAAAAAAAAAAAAAAAAAAAAAAAAAAAAAAAAAAAAAAAAAAAAAAAAAAAAAAAAAAAAAAAAAAAAAAAAAAAAAAAAAAAAAAAAAAAAAAAAAAAAAAAAAAAAAAAAAAAAAAAAAAAAAAAAAAAAAAAAAAAAAAAAAAAAAAAAAAAAAETCUVA/FvOsp0mlvXaqopiiiqYme3Njo1g33W1azVX7tyc1XLk1Zjy6z2+TM3jnuv4Pt0WKZxc1NUY+lM9WDq8eXl3+q0dA0vE5FE9Ua75xhj6Kq5mI+XnHdVKFkt5VGK7V3SAiwAAAAAAAAAAAAAAAAAAAAAAAAAAAGwCJRkE9fzaZq9cdMJrmI7/BPz6qVXKafxq5oz2x3mfRyG1bJrtdXEWNPVVTM9KpicI3zY8Vd7PbFhvn+FX4pjEd4qj9KOkU/VGmt1X6+TT5vVz+bTTPf6spcNeE9dfx7hcxTEx+809q4+c+TI2ycLaDb6YjT6a3bmPOYiqr73B1PW8eOfisOi9MZZ5swtw94d7lreWbtH4LRPeK++PVkrhnw00Gg5arlM373nNXWjP0d4opjGO1Py7r0REds4+bh5+qajL4nha9L0XTYYjeN5fPSaO1ZiIt26aMR+bEQ+tVPr1+q8IqqiHOnuyeXVrFccbQpFUT0XiIVimFohKaQRNvtKs4XnCtUFdoSnmEQ6b4wa33GyaqYmIqqiIpz55nq7nPlDE3tDauadLpLVM/wtyrMfKG1oqd2aIc/ql/b0ssOaOnlmI/Nqpmqf5WMvpTMzGZ81aZzRmPzYw+melP0fQ612o+VXneZkAReYAAAAAAABEprqzTjt847qpSp5ZtHEWds8K94nQbpa+KKbd7FFzPbl9fq2KomKoiqOsTGYn5S1LpuTRiqicV01Uz9kTDZrgnco1u2aa7T1/e6aZ+tMREql17S+3eMkL36X1vu0nFLnYCBwFuAAAAAAAAAAAAAAAAAAAAAAAAAAAAAAAAAAAAAAAAAAAAAAAAAAAAAAAAAAAAAAAAAAAAAAAAAAAAAAAAAAAAAAAAAAAAAAAAAAAAAAAAAAAAAAAAAAAAAAAAAAAAAAAAAAAAAAAAAAAAAAAAAAAAAAAAAAAAAAAAAAAAAAAAAAEVJfh3zWRpdLeuVdIpoq+/E4ZiJtO0I3vFKzafpgnxi3b8K3Wujn57ekxTTT5RNXnDpMennHefV9Nx1E3dXfu1zM81dc1fPMzyvnExMRPn5voHTae1giHyXqeT3dXOSeYkSDc8xu1Ms72ABAAAAAAAAAAAAAAAAAAAAYZiO7gBB27pdlYSAjNLR4Nq15lBTMTHx/Cl8rk0z8UzmI8v8AknN6xHy4RrS1p+ML2vin4ZmqfL5pq+GfjxTPo/Vtm2a3XzFOi09eJnE1csxP2SyBw54TX7sU1bhciI86P+s+9oZuoYdPHnd0sHTtXn4pXhjSmKrlUU2rdddc9opiZy7XsXh7uWu5Kpp91bnvnpLNHDvCOh2+I93Ypmqn865ETV9kuwYinEUU4j5dHA1XXrR+iFm0Xpan6szoHC3hhotLVzaumNVXyx8Nf4tE/pR83fNHt2n09MU2bNFuI7REPrajrOJ64fSnPm4l9Xl1HytMrLp9Bp9NXtx1gxEdlZt0+i2cpee0T5bW+3hXlhKUET9G23Ks1+UdUzEecPwbjuNFiJxia1dq1Vy91qjFKXaxMw5KKY9FsAimjD56jpT06S+r534zT9sMbI3/AEzs+eZiaMz37/Ngfx213vN0osZ6WaIriPSau7PNVPn6RM/dDWTxH10azetVdj82Zt/6kuv0fH3Z1e9TZe3SRDhbcREYjtPdaEUdkwvFuJ2fObcRCQGGAAAAAAAABCUM+E8U7b7k1R6fi9Z+cejMPgLuubd/R1V5i3iuimfKKusxDD01xTjPnPX6OyeFW4To95s1VTimuZiv0xPSnLldax+7g4dXoGb2NX3TPDZaBW1VzUxMdpiJ+9ZRn1GJ3jcAGQAAAAAAAAAAAAAAAAAAAAAAAAAAAAAAAAAAAAAAAAAAAAAAAAAAAAAAAAAAAAAAAAAAAAAAAAAAAAAAAAAAAAAAAAAAAAAAAAAAAAAAAAAAAAAAAAAAAAAAAAAAAAAAAAAAAAAAAAAAAAAAAAAAAAAAAAAAAAAAAAAAAAAAkRV2Ay6L42a+NPst2nOKr08tOJxPeJd48ojLDvtB7jTcq0mliqPgqmuuPrEdZ+XZu9Nxxl1Naz/+4crreWcWhyWj8f8Atiq3V++U1T1j3fX5zjzfOieiKe0/LotEYX6axSm0Pl2W3d8pSmFUwzT9Dzid67pAZAAAAAAAAAAAAAAARkzAJAgZ5jyCJqiO84Tj9fb5o2YjyIqjp+JP8r/kl9tv0Oq1dcU6O1du1TOOlMzb+9n3K0rzOyeLS5MluIfmiY87mZ9J6Joqqrq5LMTXX25YjP62QuHvCrV6jFe5YtUz5Ufjfcybw7wPtuht2+Sxz3KY611R8Uz6y4ufrdMMztO6xab07k1MbW4YV2DgfctdiZtTRTOOs9OjI/DXhRodPNNerzfu9Jxn4Yn0x5sjxappiIojkiPSMPpTHTp0/ar2p6tlz/2WjRdBw6eOeX49HoLGlppptWrdqmnpHLTETOPnD90VRPdSqJx25vr3TTPylzvnbmZdmmOKR8ITiM9E1RlE9Oqc58i0x9pd3dxKtqmImX1fO3GJXItE+DtivEJiDKPN+LcdwosR3iZjy8wfqu3IozNU4hwW8b1y/BZ61S4vcNzuaiZmmZinyh+nZNrm5PvK4n7Xt7cRG7wnJO+z67PttV2r3l3PXr16uxU2oiMRiPp0Wt0YpiI6YTU85l7RXdKUQlESrcpzH0/sWVrnoJ7bvxbnqYs6W/cntRRVP3RLVLV3Yu6rV3I/Pv3Jj7ZbH+J+ujT7LrZziZoqpiPXPo1p0kfvcTMYqqnM+vXzWX0/j3tMqN6vzc1pD70pVpWWnL+uFSzcTAAw8wAAAAAAAESEoYycVgtO0LWqoi5RnrCdNdm1VTVmYmL1M5jviKs4fOqPP0RVTzTMdoxM/bhG2OMtNpe2LJOP5Q2t4b1UajQ6W7T1iu3T+zDkZ/a6P4NbnGp2azbzE16eJon179Mu7Z6R183zvUU7M1q/iZ/5fWtFfv01LfmI/wCFwHi2gAAAAAAAAAAAAAAAAAAAAMwZAAAAAAAAAAAAAAAAAAAAAAAAAAAAAAAAAAAAAAAAAAAAAAAAAAAAAAAAAAAAAAAAAAAAAAAAAAAAAAAAAAAAAAAAAAAAAAAAAAAAAAAAAAAAAAAAAAAAAAAAAAAAAAAAAAAAAAAAAAAAAAAAAJgRV2BSY659Ilrn4vamL+9Xao7UUxR/qtib1yKLdVVXSKaZmfshqvxJqpv7hrKp6x765ifll3/T+LfNa34VT1Vl209afl+ABblAAAAAAAAAAAAAAAARkEis1xC3lnt9eiMd/wBpb1CMefZClV2PKYlOI45Yibfy+X1/H6RGILmKYiObH9vyhfS2r2pmKNNZrrrn0icfe7rw54Xa7V4nUz+C0TETNUxzTVH6MR5NTNrsGGJ5bml0Gr1Ntrw6Lbr64opimZ/7SOaZ+mHPbDwhuG415t6e7RTGM3a4/euvnTDNPDXh3tmg5avce+uxjNdyeaJn1imezt9mxFvEW4pooj82IiIn6YcDUddmJ2xwtej9MY52nIxdwz4T2bVcXNbem/VHXkon4PpMMi7VtOm0cRGm09FqI/RpiOvrPzfui3ETmIx9v9iZmXAz6vJlneyzaXp2LTV2pC2fOUxOVK/vn0Wp7ejxpvty2pmd0gJsCypLEyLCsSnJBvsSpVXFETNc9Ifn12ut2ac11REz28+rrO47tcu1THaj1Sri3ndC2XZye675TRExb6zPm69drrrq56pznyMR2/Gmrz9HK7HtVVVXPX+J5Q96xFHja02W2TbPeYrqjFLs1u3yREU9kWaYinERiF4lrW5mZbNOKwJQkABhMVr7SsiezFo3jYYs9oPW+62uzT+deuxTj5Swpn4oj0piGRvaC1c3Nz0unzm3TZ95j+NEyxxZnNOZ/SmF36DTtwPmPqO/fq5XAdX7cW/kASRAAAAAAAAAAAAZa9n3VYq1Vqfzp5o+xl+3RiPta/eCGsm3vMUTOKa6J+2Wwee6j9bxdurmX0v03l79FEfhcBynfCRFUZBWr595TFUTPeOnzjpPzInr27ebzo8afGDifbeLeINLpdzu2tPp9feot0xE4iinGMfeD0YzHqZj1j73lz/h44v/ANLXf9Wf+KP8O3F/+lr3+rP/ABB6j5j1j7zmj1j73lz/AId+L4/+LXv9Wf8AiV+O3F3+mLnbPSP+YPUbMesfeZj1j73lxHjvxfPbd7s49In/AIkeO/F/+lr3+rP/ABB6j5j1j71e0d8/WXl1Pjvxf/pa9/qz/wAT/Dvxfj/O13H8mf8AiD1Fpn5xP08l2rHsN8c7vxB+6c7rqqtRFur4Jq+kfc2nAAAABWv9qKZ6TjrMLTClXSmrEYnFX347gmMRnExme/Ujz7fJ5y+MXjNxNo+I900+l3O5ZsWb9ymiiM9KYmW7Xs57xqd14L2LV66ubuq1Gn5rtc95q56oz+oGQ4AAAAAAAAAAAAAAAAAAAAAAAAAAAAAAAAAAAAAAAAAAAAAAAAAAAAAAAAAAAAAAAAAAAAAAAAAAAAAAAAAAAAAAAAAAAAAAAAAAAAAAAAAAAAAAAAAAAAAAAAAAAAAAAAAAAAAAAAAAAAAAAARX2SrX2Bx3Ed73W36yv9CzXP6mq1+vnu3a/wBOuqfvlsx4i3/d7JuHrXYrpp+Uy1h0/SimJ7xHVa/TlfjktKi+rckTfHSPw+gjJlYlPSIyZBIjJkEiMo5gWFeY5hlYV5jmIjdhYV5k8xb4+UprMJEZ9ImZ9E9o+L4Z9J7m3G7Fo7Y3lEoTV0jM9KfWU6SivUVYsW6rs/xYlCb1jzLFP4n6eTmp7THXyq8oUvV+7x7yffzP4sUdcT5Zw7twx4bbnr/x+TT2J/G95Hx4n0ZK4X8MtBtvWaYv3PP3nxU5+UOVqetYaR8J3l39H6e1EzvkrMQwrs3De4blMRasVxTP8WYox9WSOGPCOiJoq19WI71W6esVfWfJlfRaO3p6cW6KLcelMREPtMT8lf1HWM9+K8LZpeh4McRa0cw4jZeG9DoYinT6emJj86Y6/e5aKIirv5fi+i1PQxGc46uXe9rzzLtUxY6+IMIxMpmEdUIxxE7pT+IWhKIlFSZtMeJTKYfOYlensRJ3b+UgSyB26D82s11uzTM1T19PNjbcmYjy+9yqKYzViIcLue9U05pt9Z9XFblut2/MxRmm35uP+fWqXvTF+Xje8fT6am9XcqzVOcz29FLlXJMRjMymJj0mavKPRzOybX72ea7Hbs9L2rXh51rNuTZdpmr4646Z6fR2S3aimIinpEJtUcscsdo7LfRq3vMtmtIgiEohLEMgDICJlEVZRS3hZS72WmX4971HuNJfufoW6p6fKJlKsbzEIZbRSk2lrf4ma+dTv+pmZzTYzah1y1OM0/PK+66idRqtTd871+qevfGZ7lzHNmI8oj7n0HpuPswxD5R1W/fqO76BGSJbHiWhbmd0iMmUhIjJkEiMmQSIyZBIjJkEiMmQSIyZB2Hw41PuN40tU9Oeumj/AFpbNz3+mGp+w3eXcNBVGfg1NqZ+cRV2bW27nPTTVHauImPtiFU9R12z1tHjZffSd4nT3rPnd9ggV1bRFc4hICkzMdsZnyl0jdfCXhnX6m9qdXs2lv6m/VzXa6omZqrnvM4nu7xy/SZjtJTTj0698eoMf/4FOEv9AaL7qv8Aij/Arwl/oDR/dV/xZDRIMef4FOEZ/wDgGj6x6Vf8Xn17S+0aTbeLdx0236anR6W1iKLVPWnvL1IiP+TzF9rerPG+5/Zn071A2E9jDw72DeuGqtRuO02NTqPeYm5czOY69sM6f4FOEv8AQGj+6r/ixl7AsTPClycz/C4x5R1lsgDHk+CnCX+gNF91X/FWfBXhGI/zBo/pir/iyKpGO0eXf1jIOucF8EbPsPvf3I0FvRRen44oiYz9kuzPlbp9KubHq+mfTr/YCQABFVWM57Qc3b5gSiv8Wr6T+wirP2d/kV/i1fSf2A8o/Hf8rN5/pN39tT0N9lP8gOHP6J/6lbzy8d/ys3n+k3f21PQ32U/yA4c/on/qVgyiImTIJEZOYEiJkz17faCQyiJBIImrE9gSK88dPWU5+QJETPykz17dPUEiJqgmcAkRFUSZ+QJEZTkAVm5Ed+/p5p5oBIiZ6dsnN2BIiao80RXE/wBnzBYMoic9uwJAyAImqO3mROQSImftMgkRmDm64BIiKuuMT9UgCOaPtM9+nb9YJFeeOkefosAEyjmjOPP0BIiJykAAAAAAAAAAAAAAAAAAAAAAAAAAAAAAAAAAAAAAAAAAAAAAAAAAAAAAAAAAAAAAAAAAAAAAAAAAAAAAAAAAAAAAAAAAAAAAAAAABFfZKKo6A6V4xX/dbJe/j/D97XOjvEfxYlnzx7ucuzUx+lephgL876REfct3p/8A7Nnzv1Tb/q4j/wAYXFeY5nfVlYV5jmBYV5jmBZCOYyJVSIiY/O6R5yW81TPT4fKfORJIrzZzy/jR69IwU1xVE8sVVVR5RGY+87Z/Uhe/bG0JlGS1TVcmKaKZrrmfxaPiqj6x5O28N+Hu56+aZm17mzOM1V/DVj5Q1c2vw44+bZ0mg1Opnh1SKumOeKZ/Rj8afo/dsmx6zXXOXT6a7Mz2rrieX9bNXC3hZt2jxXqc6rUROeavpEfxYjzd90uitWqYptW6KKY6YimIcXVeoK7duOFl0npTee7LZiDhnwirmabm4X4r5vxrUdo+TI+z8Lbft0R7jS080ecxDnYt00z0jr9VbldXk4OfW58/mVpwdP0ujjiu63LOIxMUx6QmZiPmiI6ERhrt7dbIgGEhkiWEgAAABaFYifRP07sMwlWqqIjNU4h8dVq7dmPjqxLre4btXezERyxmcTE+SdadzyvftcnuW902s009avL6ut6i7Vfr5rtUx8nxqjM5nrPzfTOYxjml7+3FXh39yK65zij8TzWvTyRHLGZlSmZjpjrPk5nY9tmuqKrmcekk22Ziu62xbV7z98r6Rjs7LapppjFMYwrboinpT0pheGvee6d2zSO2NkpRCUWQBkAAVnsihPkUwxuTHyT5uueJOtjTbRqq5nGaZp/1ow7F6/JjXx91/Js9VntVerpxPniO7Z0eP3M9Y/u0erZfb0l5/tLA1uMzn9KqZ/XL6z5/V8rNPw0xn8X9a8dPn1y+hYa9nD5Zlt7krJhXJlmfLExEVWFeY5h5LCvMcwLCvMcwLCvMcwLCvMcwLCvMcwLCvMnmB9NBc5L9qr9C9R+1tbslz3mi0tX6Vqif1Q1MonGZ9Koq+6W1XB1XPtWgmfOxb/YrHqH9VVz9JW3tkj/DmQgVldwAAAAkJAh5he1r+W+6fWP21PT2HmF7Wv5b7p9Y/bUDa72A/wAk6/52f21Nj4a4ewH+Sdf87P7amx8APlyd8T8U95fV+Het00+36XU6rVVxasaa3VcuVz0iKaKZqnGe89AfDiDe9Htemr1G4ai3pdPb6zXXMRnHy82rvin7YOl0tep03D+jnUV0VTTTrK5j3WYnGYonuwV7SfjTreMdzuRpa7mn2izzWtNZoqn/ABinmmPe3Ij87/i5/wBnn2cdw4lizrN3pq0O0Z5reaZi7qau8xXTPWKMYB+DXe1bxpqOamjVaaimrt7vTxzR/wCaOr57X7VPGulmIuazTXqInM03NPTFUx5xFUzmG5fD3gLwht1q3TZ2TT3a6Y+K7Vmaqp85k3/wH4Q3G1XFeyaeiqqJj3tOaKqJ/Sjr1BiXwv8AbB0WuvafS75oatHVXimrVxVE2aq5x3ojs2d2jddNuOmt6jRai3f01yImKrcxVmJ+nZoR7Q3s363heK9ZtFNzcdpmZqmmmJm9p89ekR1w4j2Y/GfWcJ7pZ02qvXL+06uum1ct3apxp6pq5c9fxeoPR2iMR8k1/i1fSf2Pz7fqrWp09q9p66bti9TTXbqpnmpmiqM5iY7vtXVmmrHbFX7AeUvjv+Vm8/0m7+2p6G+yn+QHDn9E/wDUreePjt+Vm8/0m7+2p6Heyn+QHDn9E/8AUrBk+Ok4RFWc4jt5pmesY+jDftPeLtrg3ablOnmi5uWppmm1bmcTTzxiK/1g5rxj8ZNk4OszVrb1N/VzE+70tqqJrrn0nHZqxxt7Y296m5V+42js7db7UxeppvVY8qpywJY0+88X7vTTR7/cNfq7kRmeaumibk9Mz2pp6tyfBn2UNr0GmtXuKKY3DV1RE1ab/qbdWI6c0dwYEp9qjjqKpr/DtNXT8tJTyR+t2Dgr2wOItJf5t5tWNysf9nbopsV/f6NvNP4N8J27M2bexaWm1Penlmf1zLHPil7K/D27aa5VstiNr10UzNEUTPu7lflFWZ6QDt3g3497DxhRRbt3qdFuMx8WjvVRFUT/ABa56VMtUY8nk/x1whvXBe7e71lN3S6jT3ImzqbXNFFU0Tmmaa479m73sgeNH99W3ToNxu53jQURmqucTqLcdKZj1noDYRWrMfT0+ZTVmP8A33RVGcdcYn/3AKVV8vWrGIjNVUzERTH1lhLxd9pXh/hfns6ev91dfbqmKtPaqxFEx+lX2Y/9sTx8r2332xbJc5dTcpxq9VRPxaenzpox5taPB/wt3bjzc6qdHz+5irm1euu5xTFX42JnvUDIXFPte8UanUXKtr/BdBYmc027lqi/VTHpmXB6b2pON7Nc1zrbVVNU5mKtPHJmfTM4bUcBey9wrtNmiNdpad2v00xFV27mJmvznlh3e/4M8JXaItV7DpZo5ccvLMdPTMSDXvwp9sGZqt2OKNLTNNVUZ11jFNNET35rUR1bXcLcRaDfNJZ1e2aq3qtPepzRVTVGYiYz8VHeGufi/wCyZtG4Wbt/hn/o7VWomY0kdbNyfTM9p6MD+CHG27eHHFtvQ7tN63oqrvuNVZuTV7um3MzHvrUT5AzZx37XU7Ju+t2/9x/wmdFqa7VVyLlNMV00TjERLYnww4r/AL5dk0e5UWZ0saumZ91M8004+f2vMTxl1em1nE+76nRVc2m1OsuV2p783NVnL0V9lv8AIjZvL97q/aDJkT36TM09PTPRq34j+1nPD+9avbZ2Kq7Olu8k3fexHN8WJmKW0+Ozy19o6Iq413eZmeWdXVGfPpXPYHpP4e8R/u/tOj3CLHuI1Vvm93M5mMx5S6/4l+LexcK010bjrbf4VFM1RpqZzcmIjPLOO0sVbp4sUcEeHOz10xRO56zTTTpbeY+CeX+Eqj1ahbLw7xJ4hbvcu2rWp1+r1V7NzU1xV+DWpq/Nqudqf+QNhuJfbQrquVUbVstVFujMU3LlyKprx2q5fKGX/ZW8WNbxzpdxu6+1RanS10xRTRER3+cMNcI+xdev2Yned3q0V+O9OmpovUz9Jq6Nh/AXwg0vAmm1VnSa29rI1U0zVXdpppmJp9IjoDJXNnpjp558mLfFrx14d4TouUanVU6rX24nk0lmeaqao8qq46U9nX/a/wDFj+9TZPwfQ3uTd9wjFqI70WZiYruNHPDfg/dONt8p01ibl69qq5q1OpuZqpppqqzVVzT27yDM3FPti75f1VU7Zo7Gh0+JxbuxTcq+UzMuoX/ak44u1e8p1tmnlnpy6eOSPlNOcS2e8NvZU4Z2vTY3ixG86meWfeXuamm3MdZppimesdmQbXgrwnTTMU7FpeWemMT2+8GmG3e1nxlbu0fhOo0d2iJiaqY09FM1R6RMdmePCL2s9q3m7b0u9aedr1FWKYvTVFVq5XPbp+b1dt4v9mfhHdbFyjT6CnQXqsx761maqJx5RLSnx88JdVwLus2qveX9DX10mqmJp95P8aY7TAPT3Sai3ft0XbNdNyi5TFVFdM5iqmYzD6Ric/r+rUz2EPFS/uVF/ZdxvTdv2aJr0tdU5rmzRT8VPXv5Ns6Y9e/lPr8wU1Fybdu5V+N7uiqrl9eWmasfqap737XsafeKtBRsNebWp9xN2bsfF8XLNUU+jarcY/xfUfzN3+pU8pOLq8cW6nnnFNO5Zqq7Ypi9mc/ZkHqPoeIdPVtVncNTco0tiuzTdrqrmIiiJpzjMtZvFr2vrGgv6rSbFoPwi5RM0062qumbXNE4zFHmxn49eKWs4lt7Tw9w3Vdr0tFmzbvU2c81y/EU04qmntT1lk3wN9k3R6bTWdXxVTGt1V2IqnRZ/erVMxmM1R3q6gwprPan44u55NfpqaM5ibempjlj0mrpl+/h32t+LdNftzr7ul1uniY56KbNFuuqPPFflLcu14J8JUWvdxsOkijHbE5x9csb+LXsr7DumjqnYNNb2rWRmqIomfd3auuObM9Adj8C/aD2jjKqLFVMbbuWPh092uP32cdeSpmOuIiM1z8NPXmziIj1mfR5K7rpNw4b3q9bqqr024bXexFVMzRM+7qmImPWMQ2d8RfaRqueH+3afQamqOINyt+6v1Uda7Nqj4LvNjtVMSDLfjT7SuycK1V6bSzG67jRMxVat1RyWu+Jqudqoa0b37WPF+rvXvwK5p7GnqzyW4sRNy3T8647uY9mz2ddRxPy7rxLVdtbfX1tWrmffaqZqz15uvL1ltdt3gXwhpaKKbWx6aOWIjM80zV/KnINJtL7VPG9mMTuGlriJ6xXpqJqx6Zmcsw+Fntf0ai/p9LxFo/d03JppnWUTFNMVTMRmaY7QzNxH7OnB2vtXojZrGnv3KZim/b5ort1T2qiM4lpN7RPgnrOB9Rz01VajbL1fLavzGOWqZzTRn1B6ScPbvpty01vUaK7Rf092ImiuiYmJiYzicdpci0b9gvxLu6fcLuyay9VXa1UR+CU1VTPLdz1ppz8olvHM9Y+YJAAAAAAAAAAAAAAAAAAAAAAAAAAAAAAAAAAAAAAAAAAAAAAAAAAAAAAAAAAAAAAAAAAAAAAAAAAAAAAAAAAAAAAAAAAAAAAAAAARUlFXYGNvaDnGz2v6RSwMz17QVOdmt/K/SwJROaftXH09WZwWl829VT/ANfH/wDKQHd2V4ANgANgANkqczsYiek9iM1fiziinuPlMclF2J/OjNKFrRWN2Z4v2fb9uh013X3abWksXLtX/wAuP63yZF4c8JtTf5K9xv06e30nksdLkx6VOz+BfD9rT7ZZ1U0/v2oiZir+LnDJP3Kr1Hq17XmmKdoXjpPRKRii+aN5da2Hgzbtupp9zpqK6+mbtURNczHnVLsURFMRE4j05e0FdGfOfsIjDh3va872ndaMeHFijakbIxn85enp5q+7iVopiHn2w9OyNu5Y6K4ME8HdKQEt2NgAAgRLDKwiJWiGNzZCcnR8dTqabMTNUxEenmzHLEzEPtNWIzVOHEbpvNNrMW+tTi913mq9mm3OKXFxM+fWZ9XtTF92eFsu/EPtq9TVf61zL4xJhPJHk9tvw8Zt+SaenRM9KPh/GJzT36zPZy2ybbNdUV3ImWLW7fKdKzbmE7DtfvMV3Y6x5OyWaIpjERjBTRTGOWMRC7Vtbds1rsBgRTlMJVMssLCISAhKART2JjpOCOkET3RslvHc+VWfij5Qwh7RGr5tRoLVNXSKa+aPnnozjdqxEtaPF7Vzf3y9TNXNRZxFHy9XU6RTv1FZ/Eq/6gzRTT2rP3DrFrstKlPRbK9zD5zvAAbIzMyAMbMABsABsABsABsABsABsIr6RLajgf8AzPt39Ht/sarXu0R6tqeB4xtG3/0e3+xWfUdZrNd1u9HT/Fy/6OcAVdfAAAAAkJAh5he1r+W+6fWP21PT2HmF7Wv5b7p9Y/bUDa72A/yTr/nZ/bU2Phrh7Af5J1/zs/tqbHwA1c9vvjq5tmz6TbNLe5bm5TVN3ln4ot256xVjtDaN5s+2nvlWv4419umuqqzpabdFFMzmKJ5fi5fTsD8nsreGlziziLTzXR/0doLlF3UzMZormiYnk/Y9I9Lao09umzYsxRYsUU00U0REU8lMREUxEefRgH2C+G527hO5qa6Ipncb8Xaapj4+SKeXGfTs2I5I6YntOenr8wUpiIpj8ynvEefzyV4npVHSe3zfWqM94yiKZxHSOgPy6q1Rct1UXaIqtXImiqiuImnlmJjtP1ebPtX+HFfCnEV73NM06DcKqr1iqIxTzVTzVU0z9r0wmnPeMxPdrN/dAdh/CeHdJrfdxVRobuKp6RVT7yYiMT6A5D2E+Obm88M3dFqK4qvbPcos2+ac112aqZq5uvWe8Nh7kfDX5RNE/fMS8/fYB3idPxjc09VyaLGq0l7FGelV2MRTM+vd6CXI+CqP4s/sB5SePE54s3jH/eLn7anob7Kf5AcOf0T/ANSt55ePM54s3j+kXP1TU9DfZT/IDhz+if8AqVgyZeuxbprrrqim3RTM1TPSIinrMy8ufaM421HE/E+vu1VzXY09+uxp6YnMYt1zRE0x9j0K9ofeZ2zg/fb8ZiuNJXTRMTiYqq9Psy82PCrYrm+8S7ZpY616rV0XJzPeKa/eVZ+6QbsexT4W07JsUbnqrMfuhukRXRFymOaxa7YjMdGxdNMUzGaszPTr+x8dv0tOns6e1TTFMWbVuiIpjFMclMU9Ij6PvVR1zjM9vlHzBHarspcpzOczT08vX0fbr6Qrczj8WJ6/d8wYp9pbw3t8V8Oam3bsUVbhpqZvaevljnm5TTPw57z2efvhbxJquEuJ9HqKZqouaTV+5vxGYiuZr5K6a4+2XqxNMzE4nrETEZ9cY6/e8vvah2P9yeM90tUfDz3PfziOWIruVTVMx88g9Ntj11Gt0em1NGJpv2rdyMds10xMuA8XOKKOHeH9z3CqqKbmmsXK7MTP497lmKaY9e7qXsk7rVuHAey13bk3L1u3VRcmZzOaapxn7HQf7oNvf4PwxpdNTVNNzU6qnOJxmiInMT+sGlNNGt4p33mmqbms3bVTOOszEXLnWPpES9M/CHgjTcJbHotFpbVMVxboq1NdNMc927VT1mZ88TLRv2ItmjW8a6O9VRFynRxVXMTGYpzGInEvRyIieb5f+8A+dqYxPLTiZ7VT+dK9OMdausd/kminp9f1fRbkj07g+M/jdI5ae81R549Wrnt5eHlnXbTZ3rR2Ma/SVct2bcYmvTZmaq6sebarl6YcFxxtFvcdm3LS10RXF/TXqMTET+NRPb0B5F1dYirOZ5u3083qB7KtWeB9m/m6v2vM7inQ/gO5a7TU9tPqbtuPlFFcxEPTH2VfyG2b+bq/aDKLy19oz4eNt35YmeXVV1RE+sVzOI+56lRDyx9pLpxlvURnMam7OftkHL8E7XuniXvu2bfNVVOk0tNNNyevutNZoj45jyirEPQ3w44P23hfa9PodosU0WKKYiu5TTHPfrjMTcvT5z3YH/ufPCMaTYNXuldFM1bnd5aK5iJqimzM01RTPlHWG0VNERGIjEekdvuBXGY6z0+SacT27QthGAecPttcR1blxtq7P75y7V/i/niM4mcfY2M9gbhuzpeFbmsqtUfheq1Nz99mnFymziOWiJmMx5s0bt4fbFrtVd1Oq2rS6jU3qs3K67dM1V1etUz3c/tm3afRWabWj09rTWaY6UWqaaKI+yAfqx06neOnTBTn6Iqq5fxppiPWZxAIriIifKPPHfLB/tt7Pp9XwJuGou0RVe0Pu67FcxHNTNddNNWJ79maLuv09PWvU6aP5V63TH65as+2t4u7Pd2O9seg1NOs1uprxem1Obeni3MTHNVHSQa8+yRudWi412y5bmaaqom1PpNNyYirP6npvh5Z+zjXV/fjs89I5r1vP0iqIj9j1MwD4bj/AJPf/mrv9Sp5L+Jmf74N2x5aq7M/ZVL1o3Kf8X1H8zd/qVPJPxJq5t93af8A/au5+fxyDaX+5++HlFyrWb9q6IqmM6fT27lOes4qm9Tn6NzaY+fVir2VtpjScD7NPLFE6mxRdnEYmYqjGf1SytRTiPUDKs9YmIn7Y8l0YgGgft98P0afiezrLVqLEaqxbomYjEXblMfFX856yxR4B8FXeI+Ktt0FEdKbtN+9NXWj3ViqmuuJ+xsP/dHek7HPnFdf9SXV/wC576T3nEWsvVU81VqzVEVT3jmpnMZBvXptLb09qzatWqaLNmKaaKKIxTRFMYjER5P1PlTGJmevfEfR9QJYm9qzhm3vHBe5xXEVToLdWqpzGZzZpmZx/wC/JlmXUfGSI/vV4g+e3arP+zkHmf4G7vO2cW7Hq7ec2tXRM/8AmmaZj6fFD1X0t7ntWrk/9ZRRV9OemKv7Xkd4fVTG+bbj/vVr+vD1r2aP8T0n9Hsf7ukH7KYSAAAAAAAAAAAAAAAAAAAAAAAAAAAAAAAAAAAAAAAAAAAAAAAAAAAAAAAAAAAAAAAAAAAAAAAAAAAAAAAAAAAAAAAAAAAAAAAAACKkokGO/HuM7NR/P0/sa/0ef1bFeNtnn2S50zNFWY+XTu10pn4Y/WuPpy38C0PnXqqv/WxP/iuKZMu+rS4pkyC4pkyC4pkyT+lms7W3WrjMdekK3evJT3mumqI+7onv3Vr8pjvT2+SEV7q7JRH8SLM++Bm8WtTtdnTU1ZvaGmaK484zMyyI1I2HedTtV6q7pLly3Xcn44pn8ef4zJOx+MV2zy07paiaJxEVWetf1qU3XdIyTkm9I4X/AKb1vFXFFLzyzcnDquw8b7draaJtaq3RNWPguTEXJz5Oz0XYrpiaO3rmJzDkZMd8fEw7+LUY8/MStgUprmZ8o+vdaqPq8vlPL3isTxCUSCVZRthSJGWUCQECek/ImIzjISUwmvp1mcYfG9fptxM11RGHXdy3mbkzTTMxEdOnmlFJs87XiHJ7pu1FuJiieap1rVai7qapquVTHyfCqaqqs5leqc93vXHs8ZtupTmnpELwZlaicd4zl6PL7VXpjEY/OnsiaOSc/jRPk5XaNsquVRXXHzjKMzs9IrutsW2TVPNejp5ZdjtW4o6Ux0RRTEREY7Po1r23l7467QAIvQAAABMJVAWQJBWeyI80yiY6eiFvDP8AM/PuFfLauz+jRVP3RMtUN+1f4Vr9Tdmcz7yuPumYbL+IGv8AwLatXezjktzGf5XT+1qvZnmqrq/7Sqqr75ysvp/DvM2Uv1Vl22q+8JhUytilrimTILimTILimTILimTILimTILimTILimTILimTILR1rphtXwZ02rQfzFH7Gq+mp5r1iP0q6Y+zLa/hy3yaDSU4xy2aOn2Kt6kt8qLj6Rr88s/4ckArC8gAAABISBDzC9rX8t90+sftqensPML2tfy33T6x+2oG13sB/knX/ADs/tqbHw1w9gP8AJOv+dn9tTY+AVuzimr5Uz+yXlZ7QOoqu8YbzXXHJMX5ifPpE4y9VK4zEx6xMffDy09pnRTpeNd7t1RMTTd5p/wDN1j9sAnYvFri7b9HZ0227hq7WhsRi1TRa+Hl+uOr9n+HDjmP/AItro/8ApT/wbh+ytw/s268GbZc1G16O7qKaIpuzVbiqZnp1llX/AAfbB/oXQf7GAec/+HLjr/TGv/2X/wCKP8OXHX+l9d/sv/xejH+Dzh//AELoP9jB/g92D/Qug/2MA86afHHjqen7ra6c+tv9nRxfFXifxVv2ir0W663VarSXJpmqmu3MRE0T06xHyelNXh7w/wBP+hdB8v3mFf8AB5w9Oaf3E0GI6/wUYyDz59ku3qLHGu3VRZuxTHwzNVM0/DMx9/m9LrnafnTP7HAaDg3Z9FdpvaXadHZvUdKblu3EVUx8pc7XHwV9Z601dfTMSDyl8d5j++zecf8Aebv7anod7Kf5AcOf0T/1K3nl48RjizeP6Rc/bU9DfZT/ACA4c/on/qVg4L209TNrgnW05nF3NM/c87+EN31e2a6xqtuqrjW2eb3U0xmaZxjMPRv2wtvq1XA27VUxExprc3KvlEdJn9jRb2cLumo4w2b8Ms27+nu1zRXRXETHXMdQchHjjx3ET/0rrfr7rt9JwrHjlx1Gf+mNd/s4n+x6K08A7BNMTGy6Caaoif4KPOMq0+HfD0Tj9xNBHn/BQDzq/wAOXHX+l9d/sv8A8U0+OfHXlvGv/wBn/wDi9F/8Huwf6F0H+xhFXh7w/wD6F0H+xgHnVa8cuOqZiqN31vSc9bfefnGHTeMd73fftVVq91i/qtXcjE3KrVVPwx2npHV6iVeH3D3Xm2Tb4iP/AJUPrPAGwzH+ZtBMY6fvVPYGG/YLuV/3qVW7lNVM27vSKsxjOXRP7ozcq91tNH5vNn7fibZ7Ns2j22ibWg0trSWp61U2qeWmZ+jWX+6K7ZNWybXqojMU6qm3VPpmmZgHQv7nNp6K993uuqPitaW3y/LNyqG8lcYzPrLz+9gjfaNHxXf081cv7pWot0es8k1Vf2vQPr+dj+zHkC3lCyMJgBSYiYmJ/Oic/SehVOej8G/a2NLotXezj8GtXKpn+TTMg8qPF+1FrinfqKJzTG46nH+1mXox7K/5D7L/ADdX7Xmvx7q41W97rficxf12orj6VXKpy9KPZX/IfZf5ur9oMoQ8s/aTnPGe8/LUXeaftl6mPLH2lfyz3v56m5/WkG8/sV2vd+H20RE5zXqav9a5lmhhv2Mf/wCPtm/+v/XhmQAVq6z0nrD4a3V0aexdvXp5LViiuuufSmimap/YD8PFHEGh2fTVajc9Va0lijrzV1U0zXjyiJ7y1x489sXaNDXct7Poq9xrt1zTm5zW7dXL05qao8muXtM+K2s4v3vVUUXqo2rR3KqNJZomeW5TTOJqqiO85y7n4BezDqOIrVjW73dq0WgvRTcps0Zpv12ZxiunIPwcY+1vxRuE/wDR/utriZ6Ra/fJ+UfFHV1a/wCKPiFvEf5Xu2qpq6R7vT3JiYn50Ut4+FPAfhHabdFFGzabWXKYiPe6iiK6+nnPzZB2nZNFoaIo0ei0+npjtFu3TGPtwDzZ0HAPHu+1Zmzukc0/9dcvWYzPy9HYeI/Zt3fZOF933riDVU6a/o6LdVnTUV+/nUc88s+9rnrTPV6KxHXpEYj5R3Yi9r+ceHu+zV+hbz8/jiAaH+zh+WGzfz9v+tD1PmXlf7N/5Y7N/P0f1qXqiD8+5f5PqP5m7/u6nkn4kx/09ukR2nV3f68vWzcv8m1H8zd/3dTyR8SP8/bp/S739eQen3gPRFPB3DkR+LG3WP7Xd6XSfAr8juHf/D7H9ru8AImEgNMf7pBV/mOP49z+pU/B/c5aInXbzM96KaMfbS/d/dH467H/ACrn9SX4/wC5xf5Zvf8AJt/1Qbsz3/WsYAJdS8ZPyV3/AP8ADtV/u5dtl1Hxj/JTf/8Aw7Vf7uQeWnAH+fNt/pVr+vD1t2b/ACPSf0ex/uqHklwF/nzbf6Xa/rvW3Z/8j0n9H0/+6pB+wAAAAAAAAAAAAAAAAAAAAAAAAAAAAAAAAAAAAAAAAAAAAAAAAAAAAAAAAAAAAAAAAAAAAAAAAAAAAAAAAAAAAAAAAAAAAAAAAAAkRIOseJ9mLmzavp+LRVP3Q1ftz0bY8ZWfe7Xr6I6zXYrj9TVC5R7uuqie9EzErV6ct8bVUT1Zi7ctcn5jYAWZUAAAAAAnmNj6EoGafFKtto2TNPpMR/78nyimYz7unE+c1/FH2PoIzG/CMbxO8Pzxa5Kuaia/e+dVMzTFM/J2LY+N9326qOXW+8txj97uZqnHplwkow8L6TDk/VDdxa/Ni/TLLmw+M9ueWnX6Wq1V53M9MeuGRdh4w2zcIj3Gromufzap5cT6dWrdVFFU/F3fLlrtV5tVVU/yZmn9jjanoVMlpmk7O3pfUeXFEReu/wDq3Lt1RVETmmc+cTEx9krdGrOwcfbvt0000X6tTao7WK+1MenPPdkfh3xnsVxjctP+CT+lbn3n6nD1HSc+Cfys2l65hzxzwy6OD2Pi3b9wpidPqaJz5VzFFU5+Uuaiumfxevz8vslz7VtWeYdamSl44lZMIpmPX7Hx1N2miJmurliPLKMbzwlaYry+0U9cy47ct0t2cxnNXaMerit03mqc02u3q4fM1VZqnMz6vemL8vGcu/0/Rq9XcvVTzzMU+T80Ux1XRh7xEVeMzunMIiE4TE47d2e6PwxO6q1Pp5z2TyRPxR+N6OT2bbKrlUV1xjPVG+SKwlSvfwtse2zNXNc60+kuy0UxEYpjEIoo5aYpiOiWra27ZrTtTVOEqiKawqAsIhIAAAAJSqASeSlzsnGaUbV3grO99mO/H7cIs7NVZ89VMU/dMS1/tx0omPKIj9TKvtI66KrmisR3oqmZj64YqtxiIXT0/Ttwzu+c+p83u6nsj6XAdxXgAAAAAAAAAAAAAAAH7tho59do6fW7R+1thoKOWzap/Ropj7ohq7wFpff7to4jrNN6ir7IltRCoeorfxq1Xz0ni/hXy/n/ANLAK8twAAAASI8wTDzC9rX8t90+sftqenrzC9rb8t90+sftqBtd7Af5J1/zs/tqbHw1w9gT8kq/56f21Nj4Aef/ALf3Ck6HiazuMU4o3W33jtNVqIpnPzegDDXtY+G/99nDV+NPTnX7fTN7T9MzVTRHPXRT9kAxn/c9uMrOo23W7Ver/wAd09fvLVPrpojrj7Zj7m2Lyc8MuM9w4M3uzuGkibV/S3Yt6nTV/DN61FUe9sVxPbtL0l8HPFPaeNNvo1G3Xoi/TFP4Rpa5im9YuxTHPEUz1qoznqDvxMvhFM5zPw1T3x1iYhNdPPGKs8k9Ijzn5g+lc9Onn2lr/wC2J4t63g3Q6G1tVy3TrddNcfFHNNNNOPix97LnGfFW38N6DU6rcdVZtWdNaquxRXcpi9XFPam3RPWrrh5r+NPiDreN9/r1dcTNq5c91oNNHXkp5uSieXynsDZD2PvEjinirf7lW46mL22afT3IvYpmKYuz1pifKJbdVdaauvSaZx9zCvsdeHF3hXhnOsjl1u6V0ai9RMfFa+GaaaM/SWbK/wAWr6T+wHlH484/vs3nH/eLn7anob7Kf5AcOf0T/wBSt54+PH5Wbz/Sbn9ap6H+yr+QPDn9E/8A71g7R4pbLVu/D+76GinmnWaS5bpj1qxn/wDrDy12PV17BxBauTTMV7drppqpnvy2rvLX+qmXrdM989o+/r8nnz7afhlVsW/V7jprE/ufus80V0xPu7N7ObnPMdusyDe7grfLG8bVodbpa4qsaqxRVGPKcYmPl1iXNUzGcejQ32RvH6nYK6Nn3yvn2zUXKYsaqqcfgdc/DTbx+hmW9Oh1NrU0UX9Pct3rVymJouW6oqoqonrExMA/WipGe6tc/DnPLEdZmfKIBF+um3TVVXim3RTM1TPaIiMzMtBvFr2l+JY4h1+n2bW2aNFavV2LMRbzmaK5o759YZr9r3xv02y7Xc2rZtZRf3jWxNFybU010abT1RMV11V09Irak+APh/qOMuJNLYnmp0tq/F7XaqIzFEU1TX1n1mY/WD0K8BNdumt4W27Ub5XFevv0TXcmImnv+L3cV7T/AAnHEHB+524omq9o7depsU4zzXbUdIZI0FinS2bNq3ERbs27duiIiI5oopimJx9j6amKLlu5RcpzRVTNNyJjpiqMT9e4PJrw34i1HDm+6PcLUct7RaiIqp7Y+LluRP2ZeqfB29WN32zRa3S3IuWtTaor5omJxXVTHPTM+vNl5/e1v4Qanhjd7uu0liqrY9xrm5RdoiaotX681XKbkR+JHVX2b/H3W8H3bej19dWr2O5VTHu6pzOniZ63KJB6Oojs6zwvxxs28aezf0G56a7F+iKqaZu0RdiJ8q6M5iXNV6u1RMTXqbVMY7TXTFP35B96Zzlgv2y/ET+9zhi7ptPVT+G7rE2cRMc9FquMVV48nYfGHxt2PhPR3ap1drVa2Yn3VizXTdmLn5vNy9oaU7Ze3nxX4xtfhNFd6zcufvlGZ93pNLmc1R88Aw5X1xVM5qqnr6z1zmXqD7K/5D7L/N1ftecXihsVjZt/1+h08zVZ0d+q3FU+fLOJl6NeypRy8DbNEfoV/wBYGVHlf7Sv5Zb1/Sbn9aXqfEPLH2lvyz3r+kV/1pBvX7GX/wDH2zf/AF/68MyMOexn/wDx9s3/ANb+vDMYK1ziY+bo3j3uc6DhPeL1PeNPVR/tImn+13qXV/FbY/3X4f3TSY+K5p7s0x610UVVUx+oHl/4caS1q+I9msXac03txs03qZ7V01XYmY+mMvVixoLdm3bsWaYo09q1Tat0URiqiimIxEVR5Yh5Kae7f2feKK66KqNTt2siuqmelUVWrsT9nZ6deC/iHouLNl0up0V6K9RbtUU6i1OIqpvU0xFUfPsDvdFqKKYppzPl6yU2+ScxzVT59eyJiqYiY+CfOJ9VqunbPNV0zHWOvmC8x2x0a6e3rxTa0HCn4Bzx77c64iKIn4uW3MVZmPKO7LXiL4g7Vwvo71/ctZa95aomfdc9PvqsR0iKPrh588Z7lvviRvG566m3dvaLTRVVnr7rT6ajPuseUVYiAcR7OXTjDZf5+j+tD1ReVHgVrreg4u2mq7MUU06uiiquZ6R8cQ9UrdfPTTVRiqiummYn1pqiJiY+yQU3L/JtR/M3f93U8kfEj/P26f0u9/Xl617hGNPqPT3N3+pU8lPEic77umJzH4Ve/ryD0/8AAr8juHf/AA+x/a7vDpPgT+R/Dn/h9j9ku7QAADTH+6P99j/lXP6kvxf3OL/LN7/k2/6r9v8AdH++x/yrn9SX4v7nF/lm9/ybf9UG7YAEuo+Mf5Kb/wD+Har/AHcu3S6j4x/kpv8A/wCHar/dyDy04D/z5t39Ltf13rbs/wDkek/o+n/3VLyS4D/z5t39Ltf13rbs/wDkek/o+n/3VIP2AAAAAAAAAAAAAAAAAAAAAAAAAAAAAAAAAAAAAAAAAAAAAAAAAAAAAAAAAAAAAAAAAAAAAAAAAAAAAAAAAAAAAAAAAAAAAAAAAAASD4ay37y1cpnrzUzH3w1N4it8m462nGIpvXIj7JbbtZPFrRRpN71FumMU1x737a5zLv8Ap/Jtnmv5VT1Vi7sFb/h1YVFxUBYVAWFQFhUBYVAWFQEygAMR6dURT1SIxkmsp9/dHaVRHrMz8+z5126Z/Gpj7H0E7WreNpZx4rfUvlaru0zE2rtdqqn8WYmY+jtOxeI277dERVdnVW6fKuczj5Os4RVHSfo1snT8GSvhs4OqZsVtpln3gfxHt7pRy1WqqdRFOZj0j1cnrtZXdq+OZmJ7Y7MGeHu4TpN000TOKb+LdX0lmuumeaYjtE9FS12jrhvxC99M1v7RTk7dkUx1zKcJhqOjulNOPtQYj/zeRIvPTuiek9u6LfWcVR18nLbTts3JiquOmen0eVrbJ1jc2bbJqqiurt6S7LRTEUxEdMK27cUREU9lmva273pXZM1IBh6AAAAJhKoCwiEgAAASClzsmnpH0R5F6qKbdcz2imZ+6Mob/LYniZlrb436r3+/3KYnmpt26cY7RPnDp+esP08Sa2vVbjrr0/m6i5RH0irD8sU4qr+WP1voXT8XtYKw+Ua/L7+ryT+FxUb7nrCoCwqAsKgLCoCwqAsKgLCoCwqA7z4IaaLu905jPLbqqj7Gx3owj7Ouhi5e1WomPisz7umflVDNsKJ1rJ36qY/D6Z6cxdmjifysA5TvAAAACJnHdKK4zAGcPMT2tY//AM23TOYicYnE4nrV2nzenHSesdfKYcDuPBuzaq77zVbPoNTdrn4rl7T2rlf21VQDCXsC5jhSuJiYj3s94x5z6tj4cbs+zaPb7dVvQaW1pLczEzRZpi3Rn+TDkoAVmMxOYif2THosA1W9qj2b6d5qndeGrNFrces6nTRERRqIxMzcpiI/hGomh3DiDgrdPeWo1e0a61PLXExXRTdimcTEx2mOj1kl13iXg3aN4or/AHR2zR6ia4mJuXLVFV2PnFeM5BpNsPtkcQ6azatajQaHVckYm9XNyL1fXMzVjpl9N59sziC9FVOm23QWKKoxzfHNyJnzj0bCbt7LvBmrqmurSX7czP8A1V3kpj6REdHw2/2UOC7Fym5TptZcmmcxFzUTXR/qzANG+J+LN94y1edXd1e5X6qv3uzRz1TTEz0o5Y6TS2Y9ln2bNRpdTY3jiWzbon4K9Lo5j47dXfmvUzHRsxwr4cbDsvLOg2rS2rlMREXZt0TcxH8aYdrn9f6oBOIiMRGIjH2RHoi5OKavTEz+qUT3xPfv0JjM9+naqJ84B5TePNMxxXvMzTVEfhNzvEx0mqcT1+r0L9lKuJ4A4bmJ6TpPp+fX6u4argrZNTXXXf2bb7tyv8eq5p7VddXzmqYzLlts0Gn0lm3Y0lm3p9NajFq1apii3RT6U0x0gH6pjHXu6/x/wjoeJNr1G37lZi5Y1FMxE4iardXlXTPlLsRIPNTxt9n7eeE9RduaexXuG2TVM2rluKq7lFvym5js4vwt8eOJeEaot2NTVqtLRGI0WrmubNHl0jvHZ6b6qxavW5ov26LturNM010xXTMT3zEsf8WeCXC27znU7TYt1TGJqsU02vtnEA1bo9tTevd9dn0HvceU3OT9c5dL419qXiveNPds0XbW3U3cxNWl5oqiiYxNEThtDf8AZJ4Lu1c02ddT8qNTNFP3RDnuGfZx4P2uumq1t035p8tRV72J+cxMdQaDcA+He/cX6+i3pNPqK69VVm5q70V+6xVOZqrrn6vRHwK8LNFwbslrRW7du5rLkRVrNTEfHernEzTzfo5h3fZtl0Wgtxb0WjsaW3TGIi1RRR0+yHI0x1B86beJmZ7Y+H+LGPJMUzjE9Yx5+f1fR+fWam1p7dy7euRbt2qZqrqqnFNFEd6pkH4eJNj0W8aO7o9x01vU6S/TNNdq5TEx2xE0+ktNfGH2Rtdp9Re1XDN23qNHMVV1aW7/AA1EzOYosxHeG3Gk492PU1027O66Su5VOKYi5TnPpDstNUVRE0z0xExPlMSDysq4I4x2G9VNG27vo6qZ/Ht0XIonE96cd36v3Q461dMW4ub5dienJEV5nyx2eo2p09u7GLtui7T6V0xVH3S/Pp9r0lFXNRpNPRVHnFuiJ/VAPObw69nbizifU8+ssXtvszVE3L2u56a6qM/FNET3lvF4L+FW18F6G3Z0lqm5rPd4v62qmPe3Omao5vKOkshTMdplxvFG5UaHbddqblURRptPdrqmekRNNE/8geWXjTqIvcWb9NOaoq3DUUxzd4mLsxPL9z0U9mKj3XBOzRPT96n9bzV4o1Ua7fNbeonm/Ctwrqp+cXL04/rQ9TvCraf3O4e2rTzEfBpbFUx6TcoiuY/WDtNM9Hll7S8RHGe9+v4RX5T+lL1Lrnpn/wBw4DXcGbLqrtV3UbNt1+7X1qu3NNZrrrn51VU5kGPfYyzHh9s2YmP4bvmPz49WZH5Np0Gn0dmmzpLFvTWKM8tq1TFFFOe+KY6Q/WCKiYzH17x8vOEgNNPbA8AdTqNXVu/Dekm7N6muvXWLcfHNf6VFMfKIay8M8Xb7wnq4jR6jV7ZdtVZq0/xURVVE9Yrpnu9Y++ekf8XSuMfCvh7fczrtr01V2e92iimi5P1qiOoNQNq9sziG1bpo1G27ffqppiOeeemqqYjHNV83EcR+11xRrYqps2tJoomJin3PPzU588z3lsxrvZW4Mv1Zq0mqon+Jf5Y/Y5Th72c+D9sqpm3t3vZpmJiL9UXYmY9cx1Bo7w1wpxZ4jbpaqqjU6n8IuRFeqv8APGmtUzOaqqpnpEYy3v8ADfwd0HDPDGq2nS5rva3T1xqdRVEc9y/Xb600z+hzZZD2XZ9Ht9v3eh0dnSWunw2aKaI6fR++Ix8weUviRwFu/C+5X6dXpbtHJeuV2b9FNXu4jnmqiqKojpP4rKnsu+JXFG4cVbVo9RvGu1mgmaaK7N2ZqtUURiIxjs323bZNDr4xrdDptVH/AM61Rc/rQ/Jt3Ce06GuLmj2vQaW7H4ty1p7VuuJ+tMZBym5f5PqP5m9/Ul5KeJf+ft0iI6xq7sRERMfnz5PW+esTGM5jEzPac94w65XwRsF65XVVsm23LnNmqurS2Zrqq/S5ppzkH4PAvNPB3DvNE0zG32MxPSY794d3h+bTWLVmmmizRFFu3TFNNuiOWiimPKmmOkP0URiASSKVd/ljqDTP+6Pz12Pv+Nc8p/Qnzfj/ALnFP+Ob3/Jt/wBX1bh71w9t+5cv7o6DSa73U5t+/tUXeXPpzQjZeHNu22aqtu2/SaGq7+P7izRamqI9eSAcxEpUp7/KIXAns6j4wRNXCm/RTHNM7dqsRHWZ/e57O21RmH579m3ciqi7RFVFdM01W6ozRXTPeJp8weR/AnTfNuzExP4XaiYxOYn3nbD1s2Wc6PST5fg9j/dUuGo4I2G1cprp2TbKLnNmmuNLZiqKv0ublzlz9PLTTGI+Gn4YppjERHbEQD7ROeyUUxER0SAAAAAAAAAAAAAAAAAAAAAAAAAAAAAAAAAAAAAAAAAAAAAAAAAAAAAAAAAAAAAAAAAAAAAAAAAAAAAAAAAAAAAAAAAAAAAAAAAipID5zE8/8XDCHtB7XNvUabUzEf4xVNuJ/kxE9f1M5sdeP23+/wBlquUxm5pquen5ZxEuh0rLGHVVtLj9dwxm0Vv7f/WvXPHX5dJWRbmIxn/s81fysIoq5qKJ9YfQN4mu8PlsxMX7ZWyjIrJHMbszG0rZMqgwtkyqAtkyqAtkyqAtkyqAtkyqJd3Gwtk5oVENoYmJn7T0OiEVdmI+E7Q9Jj3Kd1vJRfm1Xbux0m1XE0/XMM/7Jq4v6SxdzmLlujr582OrX6qnmqx5cn/3Mr+D2tnUbdVbrn4rFU4j5eTh9XwxMdyxenNRNp7bO65THVHKtRCuRP5XTk5ZMcsZnOfL7V1NTqqdPRz1xmmJjJvP0z8fty+07dVdmKq4xHePo7FYpimnER0h+LZNwsaq1RVaqjOOz99E5zmMdWnktbdtY6V8wmqqIREkwhhNOTKAE5EJAAAABMJyqAsEABISD5c8THRw/HOv/Btn19ymcVU2K+X69nK0U/DV9uHQfHLX/guyxRnrfnln7U9Li9zNX/LV1uf2tJbLHnZr3Rc55rnyuTNc/wAqesvpTPTr3nv/AGPjp4xEPrL6VWu1Kw+SXtMXtk/qTkyqMorZMqgLZMqgLZMqgLZMqgLZMqgLZMqgLZTlWEluISrG/lMyrzZmYjvETP3RlM1RE2onzqnKIpm5NNNEfHXdpp/8s1Yli1opTulnHTvv2w2F8C9rnT7VbvYiKdX8fznEzHX9bINqKuuY8+jjeDtFGk2zR2qYxFFqn756z+2XLPnGsye7ntb+8vrXTsMYdNSsfiP+ABrt0AAAARKQFeX06ZRMTGZ7+kLgKTE/8YXiMAAAArFPfyWAVinotAApVTP1j0TNPTp0WAUqpnEYnE+c+sJmM56dPVYBXH/6RTE9c+fl6LgEAArFPp0ThICJgwkBSKMZx0WiEgDrniZtFe6bBu2jt1TRc1ejvW6aqc80VVU56T9n63Y1a5xnz6dgeRWrq1uy7tctTe1NN/QarExNdcVT7m5n8XPpS9OfBHxC0HFWy6S/or1E37dm1TqLHNHvLVyimKJmqPKMww77Vfs+RvkV7vw9aotbnTTm/ZiMU3qaYzNVMR3r/Gag8IcV75wXulVemuanbtRTVi9YmKqaL80zMTFVM+QPVmmuJzn4ZzjE+f0XifLtLTDhD2zKppop3ra6M26Yzcs5mqqYxEzj1dyve2Zw37v4dFuPvJjr8EcsT8gbORVGcZzM+X0a1e3H4lW9q2Sdq0V+irW66qadRRRXE12rMxMVc8R1pljPj/2wtw1dF6zsmgo0tu9TNNvVVZ/CaJ9Yjs162zQ71xhulXu6dVuW46y9Hvr2Kq4oiuetVc9qY6g7D7NvBVfEnFW16b3VVzT2r0XNXciJmm1apnmpqmfrD1C0liLNq3bp/FtUUUU/SimKY/VEMRezJ4PWeCts5rsU17pq6afwi5HXFM4mKInyZjBWYzmJ7f2E09MeWFgFaYxM/YsAAAK8nfHSZMf/ALWAVqp+Ry9FgFeXp06JmPtSArFOOyK6Z7x39PKVwFcd59fJHJ6dPmuAry/f5ymmEgCsx6dInzWARjsYSArET59Y9VgBEomn/lKwCnLPTr1g5Z/5LgK004z81gAAAAAAAAAAAAAAAAAAAAAAAAAAAAAAAAAAAAAAAAAAAAAAAAAAAAAAAAAAAAAAAAAAAAAAAAAAAAAAAAAAAAAAAAAAAAAAAAAAAcXxRt8a3RX7U4xVRV369ozH7HKK19Y69p6T9qVbTWd4QyY4yUms/bTrWW5ou6q3NM01W7ldMRPpE4fOmYimmIjGIdw8Ztp/AN7u1UU8trUTEx5RnzdOqnNVXyno+hdPy+9giz5V1bB7Geap5iZVG1Wfpz5TkygSRTkygBOTKAE5MoATkygBOTKAE5MoATlMT1hUYv8AqendH6UXsxRMR0q585/i+jt/hPrvc7nNuasW9TRiI/RqpjrMuoRPNHV9NqvVaTWae7TOOS5Tn6TMZeGuw9+Kf8NzQXnBnr/mP+WxVE80ZxjMzGPpPdNE5mrp+LOPqjS36b0UXKJ+Cq1TMenNNL6W4jl+fmpGWva+kY7xdDjOJZ/xaaZ7S5Vw/E0/DRT65SxbPPLWXE7brb2l93XarmKKZ60+sZZJ4c4hs623TH4l7zomev1YunpThezXVbqiuzXNF6MdflCWTB3xwxjzzSWaYuR2nv6InOY6d/1Om8McUxXy2tR/C9ueXc7NcTTExVFXzc+9JpPLoY8kXhWZxVhKZp68094Qg9BOUAJyIhIAAAAJiTKAFiQB86aJxDC3tIa7nq0ulicTTiuZ8p+TNkT1+jWrxx1v4Tvc00zmLMYn7HR6Rj7tRDh+o8vtaKaul0RheZVTK/X4iHzbL+isoyZQMIpyZQAnJlACcmUAJyZQAnJlACcmUALRJzKiM+dmd9oWu4mmn9KKnZPDXQfhu+aezy/BTiqqcZpiaerrVH50+kMwezjtPNGp1d2nrPSiZj78Od1fN7OCXa6Bp/fzbM0aejkopp/RiI+59CBQpfTq1isbQADIAAAAAAAAAAAAAAAAAAAAAAAAAAAAAAiYSApTR06z/wDp0zjrws4f4isV29x2zT1VV5/frdFFu/Ge8xciHdgGru++xpsFyap0Gs1djMzMU3blVyIz5dHWo9iqnnz+7NHLntyV/i/c3HAaw8M+xxw/Ynm3LVavVTExNNNu5NunMd857wztwNwDs/Dtmm3tW32NPNNOJuxRT76v513MZmXaAFeWc9+n9qwAAAAAAAAAAAAAAAAAAAAAAAAAAAAAAAAAAAAAAAAAAAAAAAAAAAAAAAAAAAAAAAAAAAAAAAAAAAAAAAAAAAAAAAAAAAAAAAAAAAAAAAAAAAAAAAAAAAAAAAAAAAAAAAAAIqSiqMgxR7Quyze0ljVW6c16fPNER0mJ9WCs5iJ7TMdfq244l2+nW6DUWKozNy3Vj646NT9y0dek1N+zcj4rVdUfrlbfT2q49q30oPq7SW765KR58vzgLJeu15mPCrXtExGwAwgAAAAAAAAAAAAJQE88sbc7it7tM+nWPqsi5GYZtPdXtlOL2iYndmvww1/4VtViJn98tZ5/WMdnaMY5p9euGKPBfcvdanU2Kp+G/NM24+nfDLNcdZ+XRSOo45pl48PpPSMkX0/dPlNcYppmO9TgOJ6/jtR6RLn570Q6zxHXnUTH6LyrtvGzbmd6TMuMnrIDZ3nw1doMznMfDPrDs3DXFVWkmm3qetFXSKvN1lNEx195Gf0Z9HjkpW0bTD1x5pxcsz6TU0XrcV0VRVTVGfn1fTDEe37/AHdr+O7czZ8qc+TvHCHGGk3aj94u0+87cuYy0cukyUju+m1i12PJPb9uwRMzOIjt3yupVE9JnpPy830hrb7eW5akxzEqrRKlUpiWfMIe7G+2ywQMQmAMgACcrYVWYH5dVf8AdW7lUxHwRM/ZENT+LNX+E7vrrsTmKrlUR6cuZ6tnuN9TFjbNXXVOP3m5EfWaZw1MpnN2qe/NzTP1zKxen8W9ptKm+rM1uKRPD6JyhK3TO/lTb81iEAMIAAAAAAAAAAAAACWKsd+9meOyY+0xTVVNNNEZquVRTj6zDaLwy2j9z9n01uYxVVTFVWek/F1YD8L9lq3HeNPTjNuzVFdf0htDRTFNNNNP4tMRH0xGFP6/qu+/twvHpLSTTDOS8c/l9YCBXVxAAAAAAAAAAAAAAAAAAAAAAAAAAAAAAAAAAAAAAAAAAAAAAAAAAAAAAAAAAAAAAAAAAAAAAAAAAAAAAAAAAAAAAAAAAAAAAAAAAAAAAAAAAAAAAAAAAAAAAAAAAAAAAAAAAAAAAAAAAAAAAAAAAAAAAAAAAAAAAAAAAAAAAAAAACREgrNMfa188eeH40Wvo1VqmYt6yMVz5e/n875NhJjLqvilsNO6bRqLcRm9bpmu1PnFcR0w3On6icGaLOd1XTRqNPMfhq/NPWPSnpV86o7ySRRVamqK/wDqZmm5/OR0lWiJiOvn1+yez6FTJ313fJYjzKQEmQAAAAAAAAAAAAAAnHmFXaQl+7hTXTotx0l3OKKLlNv6+8lsNRMVTmO1WJ+sTEdmst/8W3Ed7Px1fyqetLYLgjcfwza9Hc71RaiK/wCVHT+xXOs4e2O5cvT+ebR2uap/hPlT2dT3qebU3J+btlP4lVXyl03WVc165PzcTSz3RMrLn+MbPjhEwsm13qz+LhttVEWsxnmiI9FLtdNFNVdyYot0R1z+dj0KIimK666sW4Y/413+rWVxZsVTTZtziZj8576bD7t9mprdXXS4+633w+HFfEE669NqxmmzTmJ+bjNj12o229F7R3arVyiczTM5irHyfCmJiqI5cW/Or5rziaueYxMdI+cLD+y0tj7ZhT79Sv7vdSWwHhz4mWd2pos6qYs6qMUzNWIiurt5slU1U+v2+U/a0wqi5buU3Ldc26pmMV09OWfKZwy14Y+KMxVTot2+CmnFNvU1TiK/Tqq/UOlTinuqtfTOvd3wy+fpnOqPXp8vUmHy0F2i9RTVRXF2mYzRXExMY+sP0VdHD/TK1Ums/J86c+a2VYqzKzMndFuYTAQAAAldRZgY68fNdNjZK4pqxXXXTH1pnu11tYiennDMHtI66YjS2M9LkTVj6MP2sRFPzhc/T+LbHu+d+pcvfmfQSO3adrK/k8QgBlAAAAAAAAAAAABMImJinrPxR8X1ojvSiZ5ZiqfxY6T9Z7OR4d2m5uG4abTU55q7lNVX8xn4nlnze3SZTxU7stY/Msz+AXD3uNFVra6Zi9qZ+GZ/7HyjDKcUxHZ+batFRpdNZsWo5aLVFNMY+UP1R0fOtTmnNlm8vr2kwRp8MUhYB4tkAAAAAAAAAAAAAAAAAAAAAAAAAAAAAAAAAAAAAAAAAAAAAAAAAAAAAAAAAAAAAAAAAAAAAAAAAAAAAAAAAAAAAAAAAAAAAAAAAAAAAAAAAAAAAAAAAAAAAAAAAAAAAAAAAAAAAAAAAAAAAAAAAAAAAAAAAAAAAAAAAAAAAAAAAAAAwpXEefaYwupX/wC/qG0T5a2eNHDX7mbhVVapxp9ZVNczj4feTOZh0WuZz17x+zybReJvDVO8bXetREe/txNdqrziqOuIlq/qLdVu5XRXE012pmiqJjExy9MzC6dF1vvY/bnzD5t6i0FtLqffiOJUyZB282PblwJp7vMGTIPTfesMT+DJkGGDJkAMmQAyZADJkAMmQAyZ7fWAiM/+/RiTfbleel2uJ689H9jJfgXruazqdJVVM1U5qpiZ7R6QxlPxU8/nT0c94a7hOj3jT1ZxTqaotz6dfVz+qV7tPs6PR9Remp3Z7mcRNX5tNHxR5Zx5ukaiqaq7kx+dVP2dXd9ymKLOoiPOnpPrn0dKp7T6xn6qnpJ9usxL6HmtOo2hFcU00RmrqiqZxmnrTT1qz6Fqimeaq52pdI444oqjm0+hnFc9K5jtjt3b2DBOSWhq9fTT07Hy464nm7X+DaP8Ttdmny9XV4oinpE5j19VbObfSn4rl3+Eqn5915p5ekeSy6fTxjjfZRNXmnLffdPNOMZ6eiJnINlq7HfpPWPRWbUVZpqqz+hE/mz5YW6+XfyTFNNcYr+GqnzhG1YnyRMxO7t/h54h6vY66bOuqru6KZxnMzNET2x8mw2wb3p9w09F7TXIvUVxGeWYmaMx5w1IqiK4mJnniOmJ84cnwlxNreH78XNHXVVppn98s1TMxMZ6xEeSu9T6VGT5Ujla+k9Y9ni88NtbMZmcTmn1Xrh1Hw+42029W80VU2rsUxNVqZiJifl6u4Zyqt8F8NprZdcOpx6qndR8qc+q+ET0lbJu9Yx+3ymmFsK0z0WRS74kPKfoK3q+S3XV+jRVP3RMsbEx9taPG7c/wjea7U/F+CdPpnq6VEZiJ9esfKPRyfGetjU7vq73f8Jrqj5RyzMOMq6RT/F+F9E6fjnFjrWXyjqWf3cpkyDetzLQvSeJMmQGDJkAMmQAyZADJkAMmQLT8NmYju+JmTKEz+39aOHHxuzEe1HKK/ipmJnpPWfrHZmzwA4bmKJ3HUUfHNM0Wpqjr7ue8wxRwrs1e66+xpLcTm5XFVUxHSmimc1c0+Ta3Z9BRotLZsWoiKLNEU4jzxEZlWuu63aPYr5+1r9L6Cb5J1No4fuoiPrlZWjt8llUX0AAAAAAAAAAAAAAAAAAAAAAAAAAAAAAAAAAAAAAAAAAAAAAAAAAAAAAAAAAAAAAAAAAAAAAAAAAAAAAAAAAAAAAAAAAAAAAAAAAAAAAAAAAAAAAAAAAAAAAAAAAAAAAAAAAAAAAAAAAAAAAAAAAAAAAAAAAAAAAAAAAAAAAAAAAAAAARKUSCKsT0YA8eeF6tLq6tbp6P3rU499iOlOPP5NgPscVxRtNG5aO/p7lMTFymYifScNvRamdPli0Of1HQ11mHtt9ctQ7dfPOI/g6I+GfWU9+s93IcV7PXtesr0ldM0RRVM0TP5/WekOPiJmcfnenm+hYssZ8cTXl8rtE6fNNLRtH9wMfqE6z9PK8bWkASYAAAAAAAAAAABnxKFrV6bN2zcj8yumZ+UZhCJnpiYzzdPp83nkxxkjaXrj1MYrd0Q2B27cY12027lquJqpojMZ69nCWvizMU4r85npEYYs2DiHVbXPu6Kqrlmryz0hyG88aai/R7rT0TamqOtfZwMnT5rl48LXg6zH7Pv8AbkONOJKqc6fSVRTd7Vz+10emmeszPNVM5qn+N5k01XKpm5Mzczma/V9p5fzYxEd/nPq7Wm0taRuruu1Vs19yjoSghszfee1pfypAEQBiZ2ZiN0090XIyifkZN4niUop/dbRa3UaK7Rd0tdVFymfKZjpHkzl4YeKFrX8mn19UWtREREXKpxFUsFVRmPp+tWqiauWqiZt10TmJjpMzDndQ6XTPWb/brdP6rk0lor9Ny7NVNUd4mJ6xVE55o9V66ZnGJzSwD4YeKFzS1UaXdM+6mYii/V2op7YqlnbR62zdt0XbN2m5ariJiaZzHVSdRpsmGdph9A0OvprK8S/RTjy7LKxPp2TzR6tW0xDfpTaTzj6uG4v3H8F2zW3p6Yt10x/5ox/a5aaumY8p6/Jjvx23Sixst63FyIuXZjFPnPV7afHOS0RDX1WaMccteInNdc/pV1z98zL6S+VmJxGfR9Zl9JrXZ8ivzkQAnHKWW3EQADyAAAAAAAAATETPSI6oW54SxR8t5REZnHlPf6IquTM8mOsT+9fOfJNPXm+UTmf0XcPCThad511uuuifcaWqKufHw1YmOjy1WpjT4pmeGzo8M6vVVpEbwyf4F8Kzo9LXq9TRjUaqI7x1piO2PRlCHy01um3TFNMYpoiIiI+XR9on5Pneoz2z5JvZ9V0elrpcUY6/RSkgeLaAAAAAAAAAAAAAAAAAAAAAAAAAAAAAAAAAAAAAAAAAAAAAAAAAAAAAAAAAAAAAAAAAAAAAAAAAAAAAAAAAAAAAAAAAAAAAAAAAAAAAAAAAAAAAAAAAAAAAAAAAAAAAAAAAAAAAAAAAAAAAAAAAAAAAAAAAAAAAAAAAAAAAAAAAAAAAAAAFKu/0XRMAxr4y8HUblpatTYozqrUTMYjrOGvM26veVRVmm9bzFcT35o7tzqqImMTETHo1/wDG3girQ36tdpKP3i5VNV2Ke8VT1npHksnQup+xf25U/wBS9H/aK+9Vi6Kp93V51c3/AO13zp6RzR1oq++J+cL8y3dkRPdH2ovdP6Z+kiMmQSIyZBIjJkEiMmQSIyZBIjJkEiMmQSIyiZBKVckSCwjJkEiMmQSIyZBIjJkEiMmQSIyjKMeWJtefhCt6iK4xM4/Zn1ds8POPNTsF+m1fqq1OkrmIxVmYoj5ejqtcRVGJ6R6+ZdnnpiiaY5Y8/OWtrNJXPXaW/pNZk0M90NtOHuIdJr9NRd0963VRc/NmqOaJ84x3cnEU98Y+eejTrQ6u/pLkVaa7ct1R2iKp5frhzk8f79yxTG4V00x6REq1n9O333r4WvTeqImkd3lslxLxFotts1V6q/RTNETMUxMZqmPk1v484rub9q6rlrpp7U4ppnziPNweu1mq1lz3us1Feor/AEapnln6vjFP50fvdX6FP4rpdN6TGCe6fLldV63+0RtD6CMmXdVtIjJlkSIyZBIjJkEiMmQSIyZBIjJkEXJmInHda5MzXRFM4mY6qzXEdURTVzR0ma7mIopjrOZ7dCIin8Wfo+WT+FH2/Zs223NbqqNNp4muu5XHPjyoz1bR8B8O2dm0Vq1apxXXETXPzxDqHgjwR+AWY1mqoj8JvU/D54onr19JZS5VH6x1H9qy7R4h9H9P9KjRYu63mUUT1mPRciBxYWMAAAAAAAAAAAAAAAAAAAAAAAAAAAAAAAAAAAAAAAAAAAAAAAAAAAAAAAAAAAAAAAAAAAAAAAAAAAAAAAAAAAAAAAAAAAAAAAAAAAAAAAAAAAAAAAAAAAAAAAAAAAAAAAAAAAAAAAAAAAAAAAAAAAAAAAAAAAAAAAAAAAAAAAAAAAAAAAAAAAAfj3TRWtXars36Irt3ImOsZxmMdH7FZpz9GYmYneGJiLRtLVbxI4Uu7Frrkcs1aS9VM0TiZiM9odVbb8YcN2d201du9FPNy1clUxnlqx0lq9xXsGo2fV1WNVExTMzyXcfDXGei59J6nXLj7Mk8w+c9e6XfBl9ykfGXEi0U94mcTHaPVGHfiJmN4V6tZtG8IE4QjE7oRMSAMsgAAAAAAAAAAAAAAAAAAAAACUDDMX7fpMJRBljeU5yd/wComEcq2TLPdPiUO2I8SQIyZYmZjwzFa/coASRAAAAAAAAAThjdjfmIQJiEzEdZz8NPer0ZtHbG8p2rNfKOaKesxmI8vVlLwS4HnWX/AMP1tH7zR/B0VR39OkuC8LOCr286q3drp5NFbqzVVVHS7HpDZPbNut6SzRas0xTbojEREKz1nqcRX2sUrb6d6Va1vey14fos0xTERTEU0x0iI7YfRFMYSqa9gAAAAAAAAAAAAAAAAAAAAAAAAAAAAAAAAAAAAAAAAAAAAAAAAAAAAAAAAAAAAAAAAAAAAAAAAAAAAAAAAAAAAAAAAAAAAAAAAAAAAAAAAAAAAAAAAAAAAAAAAAAAAAAAAAAAAAAAAAAAAAAAAAAAAAAAAAAAAAAAAAAAAAAAAAAAAAAAAAAAAAAAEup+IXCFjfNJXRcppi/TTPuq/OKsdHbFaqInHySpe2O0Wq88uKmas0v4lp1vuzajatVXp9XTVz0zPLXjpNOemJfjbR+I/BVje9LX0ijV0RM2rkRHWqO0VfJrVxBtGo23VVWNRRNvlnHNVGKav5Mrv0vqsZ47LeXzHrnRs2iy+5j5q/BKE1VR5fr8/orl2rbb8OTa0W5hIjJlhFIjJkEiMmQSIyZBIjJkEiMmQSIyZBIjJkEiMmQSIyZBIjJkEiMmQSIyZBIjJkEiMmQSIyZBIjJkEiMmQSIyZBIjJkEiMmQSsplaKox3xPr+b9qVZrHlLu7az+fpMuyeHnBt/fdXTiKqNHbqibszExFURPWDgDhDVb5fimKZosU1Rz3cTyzRnrifVszw5sOn2vTU2NNTy00xETViOar5zKt9W6t2ROOnlYfT/Q8me3vZvD6cP7TZ27T27Gmoppt0REdPOcd3JK00xHZZUJmZneX0WtIpHbXwAMJAAAAAAAAAAAAAAAAAAAAAAAAAAAAAAAAAAAAAAAAAAAAAAAAAAAAAAAAAAAAAAAAAAAAAAAAAAAAAAAAAAAAAAAAAAAAAAAAAAAAAAAAAAAAAAAAAAAAAAAAAAAAAAAAAAAAAAAAAAAAAAAAAAAAAAAAAAAAAAAAAAAAAAAAAAAAAAAAAAAAAAAAAAIrjpLqnH3B2k3zTTReoim/ET7uuMRPNjpmfN2yURTHolS9sdu6s8vPLipmpNLxw0/4p4d1WzamqzqqJ5cz7u7j4eXyjLim3HGHDOk3fS12dTairPWmvtVRVHaqJa4cd8E6vY79fNTVf0VUzMX4j+DplcumdWplrFL/qfPOq9Cy6e83xxvV1YUoq+KMTzW5/Fr/S+Ur9ObpOY9Het8Y38q3v8u2QRTMznMcvVKNbbxuxae2dtgBOI3+0q/IAYAAAAAAAAAAAAAAAAAAAAAAAAAAAAjmWQBmY2YtPaAiJnm/FzGO7ztbtjdik907eEhbx1zV9ilqcz8UzT/2cR1m7Ponx290yzXe1u2IXmfXo7f4dcB6jfL1NdyibWhpmJqmYxNfzhzPhp4ZX9yqjUblRVY02Y5bM5j3kd+7YPbNvs6Szbt2LdNui3TFMRHTpEY6+qtdU6vWse3i8rZ0foF8l/czRw/LsG0abbtNbsaWiKLdERGfOcecz5uVRywlU5mbTvK+VrWkdtY4AGEgAAAAAAAAAAAAAAAAAAAAAAAAAAAAAAAAAAAAAAAAAAAAAAAAAAAAAAAAAAAAAAAAAAAAAAAAAAAAAAAAAAAAAAAAAAAAAAAAAAAAAAAAAAAAAAAAAAAAAAAAAAAAAAAAAAAAAAAAAAAAAAAAAAAAAAAAAAAAAAAAAAAAAAAAAAAAAAAAAAAAAAAAAAAAAFa46Px7nt1nW2K7Oot012a4xMTES/cMxMxO8MWrFo2lrv4j+F97b6qr23Ue901czPu4jPuvPsxfVa5Jqiv4LkT2nMdftbq3KIqiYqiKonvExmJ+sMb+IvhfpN0pru6WmLOqjMxyxEU1T9Fk6Z122KYrl5VPq/pyuaO/D5a5xnznKXJ7/AMP63a782dZaqtXaetN6YmbU2/KPq4qO/WeWfOZ6xX/J9Fqx58eo+VJ8qRal9NecV48LBEx5RNMek9x62wcbw88nz8ACCMADIAAAAAAAAAAAAAAAAAAAAAAAAAMTG/DExvxABmI7/ZV5U/V6Vw7RvL1xz2RySiqJ9cU+ZRmqfhqimf8AtJ/En5RS7PwdwRrt8uRFq1Xa0tNURduVRjnnzqoz5NfJq8Wl+VpemHTZNbkjFSPLru36G7qb1NGmom5XV5REyzd4aeFdFHutXulEV3OlVFme1vHbMO78EcDaHZbVMWrVNd7Ec1yuImc/KfJ2yFP6l1q+oma4+IX3pXp/HpqxbJzL5UW6aYimKYimmIinHaIh9oBwllgAAAAAAAAAAAAAAAAAAAAAAAAAAAAAAAAAAAAAAAAAAAAAAAAAAAAAAAAAAAAAAAAAAAAAAAAAAAAAAAAAAAAAAAAAAAAAAAAAAAAAAAAAAAAAAAAAAAAAAAAAAAAAAAAAAAAAAAAAAAAAAAAAAAAAAAAAAAAAAAAAAAAAAAAAAAAAAAAAAAAAAAAAAAAAAAAAAABWv9SI+nT9a4Did+2PS7naqt6yxTcpmMROPij5xLB3HfhHqNFNd7bc6qx1mbc/jW4/ix5thxtabWZdPbes8NDW9Ow6uk1tHP5aWaizXarqou010VUzieemaZz9JUbU8ZcC7fvEVzdtxbvVd7lERFUzjplhXjLwt3DbYqq00RqNNmcRT1uY+i3aDrWLNHbee2VE1/p7UaS3di+UOgT079BaqmbUzF2irMTiYuRMTE+isTNXWKcR+p2K2i8cOBfaJ4BUlm0WjxBWlpjeFhQg3R2t9QuKoliJZ7bR5hcUEhcUSCwqGwsKhsLCobCwrKAXFAFxSEo7sRW8/SwqM7pRWywqdPPMR547/YzWLfcFqWr5TM479E46Zx09fJMTNPWaKarfrV+M+uj0V7WXKaNJRduc0x8FFMzT9UL5KY/MpYo7rbV33+nxn59H69r2vU665FvTWbl2uZj4aaZmmc/pVeTJvB/g9qNTNu7udcW7fSYoo/H9cTDM3DfD2j2u3yaWzTRMxEVV4+OvHbMuDr+uUp8cc7rH0/01m1E9+ae2GLuAvB2iiaNRuszNUYmNNH4tM+WZZf0Okt6aim3Yt02rVMRERTGO30fqFVz6nJntveV602jxaasVpCk/T6StT26pHg2gAAAAAAAAAAAAAAAAAAAAAAAAAAAAAAAAAAAAAAAAAAAAAAAAAAAAAAAAAAAAAAAAAAAAAAAAAAAAAAAAAAAAAAAAAAAAAAAAAAAAAAAAAAAAAAAAAAAAAAAAAAAAAAAAAAAAAAAAAAAAAAAAAAAAAAAAAAAAAAAAAAAAAAAAAAAAAAAAAAAAAAAAAAAAAAAAAAAAAAAAAFaoRVTmMTET9esLgOn8S+H+27pFXvrEW65zPPREU/FPnOGJeKvB7cNLNVWgq/CbUZmKKelURHlLYpFUZiY9Yw3tP1DPgnizl6jo+lzx+nb/AA0x3TbtToauXV2Llmr0mmZj74flmemW4m4bHo9VRNu/p7dymY/OpiZ/1u7HXEvgxor3PXoL9WkrnrEY56c/R39N6ijxkVPW+ls8b2xWYAImHdt/8Ld50dU1W7Uaq3T3uUz1n58rqer0l3T1TTf012zVHeqqmYjPo7GLX6fJ4lwL9P1eH9VZfnwiaVJriZxE5n07L8sxMc/w57de7di1Jj4tWbZI+NoOWcZ8lYnPZaumY7TmETjyjAwJQkgAGQAAAAlCZQwIz1x5rTTMIjHp18kxRnrVVgCenfumVJpmrrERNPrlX3sZxzTn6ZYm2OsbyzE5bTtWH0yP2bds2t1UxGk0t3NX500zMVfP5O9bB4Qbnqopq1dUaeJx1jrOPo0cvUdPj8y3cXTdXmj41Y4qqiI/4dZ+5y+xcN7juU0/gWkuXImfxpiaYj54nuz3wx4SbXoZiu9H4VejHWrtn+S71pdBYs8sWrVNuKe3JEUdunl3cbVeoptxjWLR+lclZ3zWYW4R8E6rlVN3drtXrNmmcRHyZZ2HhfRbdFMaTTUUTTGOaaY5sfVzor+fW5s8/KVr0/TNNg2mteY+1MfLH0WiEjVb4AAAAAAAAAAAAAAAAAAAAAAAAAAAAAAAAAAAAAAAAAAAAAAAAAAAAAAAAAAAAAAAAAAAAAAAAAAAAAAAAAAAAAAAAAAAAAAAAAAAAAAAAAAAAAAAAAAAAAAAAAAAAAAAAAAAAAAAAAAAAAAAAAAAAAAAAAAAAAAAAAAAAAAAAAAAAAAAAAAAAAAAAAAAAAAAAAAAAAAAAAAAAAAAAACMIin5LAK8v3fe4/c9j0esjGp01q7Hzpjv9jkhmLTXwjalbcTDHG++Eu26uZm3T+DzP6Hk6juvgfdpifwPVU3Jn/tpxy/RnVE/TLewdT1GGd6z/u5Wo6HpM+/dE/6S1e3Hwt3nQxPPaovx5e6+LLrep4d3GzMxd0OopmOvWiezcSqfo+V3TW7v8Jbor+cxEt+nqHUb/KI/2c7J6V0kx8Jnf/LS/UWrlr+Et10fWmXzpuRP/wCpbharhzbrv8Jo7FX1oh+G9wRtFzvobMZ/RpiG7j9R1j9dXMyek8n8tmpsTHqn7JbP6nwv2W53080/yZiHH1eDey1f956/x/8Ak2I9Saf+mXhPpPVfVoa4THzV5vlLYufBPZJ89V/tP+S9Pgvskf8Aef8Aaf8AJP8AePS/0Sj+6es/qhrlE/KY+pNUR5tk7Pg/stExPLqKseU15j7sOS0vhrs1rtpeb+ViUJ9Saf6rKcelNV92hqvN2Pn90v06fR3738FYuV/SmW19rgzaKO2g0/20RLkNLsWhtfwels0/SiIauT1HEz8KtjH6Tv8Az2ap6Dhbc79Ue70GomO0zyTiHaNs8IN41UxVV7m1b9K5xLZOi1TbjFFNNMekRELx2advUOpmfjt/s6dPSujiPlv/ALsKbV4G05ivVauqJ87duc0O57H4Y7XpMc2novz61xl3mn6YS5+bqGozTM2l0tP0fS6fbtjx+X49Dtun01MU2LFu1EdI5aY7P1TCw0pnfy6cViPEI5Y746mEgyAAAAAAAAAAAAAAAAAAAAAAAAAAAAAAAAAAAAAAAAAAAAAAAAAAAAAAAAAAAAAAAAAAAAAAAAAAAAAAAAAAAAAAAAAAAAAAAAAAAAAAAAAAAAAAAAAAAAAAAAAAAAAAAAAAAAAAAAAAAAAAAAAAAAAAAAAAAAAAAAAAAAAAAAAAAAAAAAAAAAAAAAAAAACMGASIwYBIjBgEiMGASIwYBIjBgEiMGASIwYBIjBgEiMGASIwYBIjBgEiMGASIwYBIjBgEiMGAMQYMGAMfRHKnBgEY+ZypwYGNoRynKnBgNoRg5U4MBtCOX6JwYMDJgMGASIwYBIjBgEiMGASIwYBIjBgEiMGASIwYBIjBgEiMGASIwYBIjBgEiMGASIwYBIjBgEiMGASIwYBIjBgEiMGASIwYBIjBgEiMGASIwYBIjBgEiMGASIwYBIjBgEiMGASIwYBIjBgEiMGASIwYBIjBgEiMGASIwYBIjBgEiMGASIwYBIjBgEiMGASIwYBIjBgEiMGASIwYBIjBgEiMGASIwYBIjBgEiMGASIwYBIjBgEiMGASAAAAAAAAAAAAAAAAAAAAAAAAAAAAAAAAAAAAAAAAAAAAAAAAAAAAAAAAAAAAAAAAAAAAAAAAAAAAAAAAAAAAAAAAAAABgwAGDAAYMABgwAGDAAYMABgwAGDAAYMABgwAGDAAYMABgwAGDAAYMABgwAGDAAYMABgwAGDAAYMABgwAGDAAYMABgwAGDAAYMABgwAGDAAYMABgwAGDAAYMABgwAGDAAYMABgwAGDAAYMABgwAGDAAYMABgwAGDAAYMABgwAGDAAYMABgwAGDAAYMABgwAGDAAYMABgwAGDAAYMABgwAGDAAYMABgwAGDAAYMABgwAGDAAYMABgwAGDAAYMABgwAGDAAYMABgwAGDAAAAAAAAAAAAAAAAAAAAAAAAAAAAAAAAAAAAAAAAAAAAAAAAAAAAAAAAAAAAAAAAAAAAAAAAAAAAAAAAAAAAAAAAAAAAAAAAAAAAAAAAAAAAAAAAAAAAAAAAAAAAAAAAAAAAAAAAAAAAAAAAAAAAAAAAAAAAAAAAAAAAAAAAAAAAAAAAAAAAAAAAAAAAAAAAAAAAAAAAAAAAAAAAAAAAAAAAAAAAAAAAAAAAAAAAAAAAAAAAAAAAAAAAAAAAAAAAAAAAAAAAAAAAAAAAAAAAAAAAAAAAAAAAAAAAAAAAAAAAAAAAAAAAAAAAAAAAAAAAAAAAAAAAAAAAAAAAAAAAAAAAAAAAAAAAAAAAAAAAAAAAAAAAAAAAAAAAAAAAAAAAAAAAAAAAAAAAAAAAAAAAAAAAAAAAAAAAAAAAAAAAAAAAAAAAAAAAAAAAAAAAAAAAAAAAAAAAAAAAAAAAAAAAAAAAAAAAAAAAAAAAAAAAAAAAAAAAAAAAAAAAAAAAAAAAAAAAAAAAAAAAAAAAAAAAAAAAAAAAAAAAAAAAAAAAAAAAAAAAAAAAAAAAAAAAAAAAAAAAAAAAAAAAAAAAAAAAAAAAAAAAAAAAAAAAAAAAAAAAAAAAAAAAAAAAAAAAAAAAAAAAAAAAAAAAAAAAAAAAAAAAAAAAAAAAAAAAAAAAAAAAAAAAAAAAAAAAAAAAAAAAAAAAAAAAAAAAAAAAAAAAAAAAAAAAAAAAAAAAAAAAAAAAAAAAAAAAAAAAAAAAAAAAAAAAAAAAAAAAAAAAAAAAAAAAAAAAAAAAAAAAAAAAAAAAAAAAAAAAAAAAAAAAAAAAAAAAAAAAAAAAAAAAAAAAAAAAAAAAAAAAAAAAAAAAAAAAAAAAAAAAAAAAAAAAAAAAAAAAAAAAAAAAAAAAAAAAAAAAAAAAAAAAAAAAAAAAAAAAAAAAAAAAAAAAAAAAAAAAAAAAAAAAAAAAAAAAAAAAAAAAAAAAAAAAAAAAAAAAAAAAAAAAAAAAAAAAAAAAAAAAAAAAAAAAAAAAAAAAAAAAAAAAAAAAAAAAAAAAAAAAAAAAAAAAAAAAAAAAAAAAAAAAAAAAAAAAAAAAAAAAAAAAAAAAAAAAAAAAAAAAAAAAAAAAAAAAAAAAAAAAAAAAAAAAAAAAAAAAAAAAAAAAAAAAAAAAAAAAAAAAAAAAAAAAAAAAAAAAAAAAAAAAAAAAAAAAAAAAAAAAAAAAAAAAAAAAAAAAAAAAAAAAAAAAAAAAAAAAAAAAAAAAAAAAAAAAAAAAAAAAAAAAAAAAAAAAAAAAAAAAAAAAAAAAAAAAAAAAAAAAAAAAAAAAAAAAAAAAAAAAAAAAAAAAAAAAAAAAAAAAAAAAAAAAAAAAAAAAAAAAAAAAAAAAAAAAAAAAAAAAAAAAAAAAAAAAAAAAAAAAAAAAAAAAAAAAAAAAAAAAAAAAAAAAAAAAAAAAAAAAAAAAAAAAAAAAAAAAAAAAAAAAAAAAAAAAAAAAAAAAAAAAAAAAAAAAAAAAAAAAAAAAAAAAAAAAAAAAAAAAAAAAAAAAAAAAAAAAAAAAAAAAAAAAAAAAAAAAAAAAAAAAAAAAAAAAAAAAAAAAAAAAAAAAAAAAAAAAAAAAAAAAAAAAAAAAAAAAAAAAAAAAAAAAAAAAAAAAAAAAAAAAAAAAAAAAAAAAAAAAAAAAAAAAAAAAAAAAAAAAAAAAAAAAAAAAAAAAAAAAAAAAAAAAAAAAAAAAAAAAAAAAAAAAAAAAAAAAAAAAAAAAAAAAAAAAAAAAAAAAAAAAAAAAAAAAAAAAAAAAAAAAAAAAAAAAAAAAAAAAAAAAAAAAAAAAAAAAAAAAAAAAAAAAAAAAAAAAAAAAAAAAAAAAAAAAAAAAAAAAAAAAAAAAAAAAAAAAAAAAAAAAAAAAAAAAAAAAAAAAAAAAAAAAAAAAAAAAAAAAAAAAAAAAAAAAAAAAAAAAAAAAAAAAAAAAAAAAAAAAAAAAAAAAAAAAAAAAAAAAAAAAAAAAAAAAAAAAAAAAAAAAAAAAAAAAAAAAAAAAAAAAAAAAAAAAAAAAAAAAAAAAAAAAAAAAAAAAAAAAAAAAAAAAAAAAAAAAAAAAAAAAAAAAAAAAAAAAAAAAAAAAAAAAAAAAAAAAAAAAAAAAAAAAAAAAAAAAAAAAAAAAAAAAAAAAAAAAAAAAAAAAAAAAAAAAAAAAAAAAAAAAAAAAAAAAAAAAAAAAAAAAAAAAAAAAAAAAAAAAAAAAAAAAAAAAAAAAAAAAAAAAAAAAAAAAAAAAAAAAAAAAAAAAAAAAAAAAAAAAAAAAAAAAAAAAAAAAAAAAAAAAAAAAAAAAAAAAAAAAAAAAAAAAAAAAAAAAAAAAAAAAAAAAAAAAAAAAAAAAAAAAAAAAAAAAAAAAAAAAAAAAAAAAAAAAAAAAAAAAAAAAAAAAAAAAAAAAAAAAAAAAAAAAAAAAAAAAAAAAAAAAAAAAAAAAAAAAAAAAAAAAAAAAAAAAAAAAAAAAAAAAAAAAAAAAAAAAAAAAAAAAAAAAAAAAAAAAAAAAAAAAAAAAAAAAAAAAAAAAAAAAAAAAAAAAAAAAAAAAAAAAAAAAAAAAAAAAAAAAAAAAAAAAAAAAAAAAAAAAAAAAAAAAAAAAAAAAAAAAAAAAAAAAAAAAAAAAAAAAAAAAAAAAAAAAAAAAAAAAAAAAAAAAAAAAAAAAAAAAAAAAAAAAAAAAAAAAAAAAAAAAAAAAAAAAAAAAAAAAAAAAAAAAAAAAAAAAAAAAAAAAAAAAAAAAAAAAAAAAAAAAAAAAAAAAAAAAAAAAAAAAAAAAAAAAAAAAAAAAAAAAAAAAAAAAAAAAAAAAAAAAAAAAAAAAAAAAAAAAAAAAAAAAAAAAAAAAAAAAAAAAAAAAAAAAAAAAAAAAAAAAAAAAAAAAAAAAAAAAAAAAAAAAAAAAAAAAAAAAAAAAAAAAAAAAAAAAAAAAAAAAAAAAAAAAAAAAAAAAAAAAAAAAAAAAAAAAAAAAAAAAAAAAAAAAAAAAAAAAAAAAAAAAAAAAAAAAAAAAAAAAAAAAAAAAAAAAAAAAAAAAAAAAAAAAAAAAAAAAAAAAAAAAAAAAAAAAAAAAAAAAAAAAAAAAAAAAAAAAAAAAAAAAAAAAAAAAAAAAAAAAAAAAAAAAAAAAAAAAAAAAAAAAAAAAAAAAAAAAAAAAAAAAAAAAAAAAAAAAAAAAAAAAAAAAAAAAAAAAAAAAAAAAAAAAAAAAAAAAAAAAAAAAAAAAAAAAAAAAAAAAAAAAAAAAAAAAAAAAAAAAAAAAAAAAAAAAAAAAAAAAAAAAAAAAAAAAAAAAAAAAAAAAAAAAAAAAAAAAAAAAAAAAAAAAAAAAAAAAAAAAAAAAAAAAAAAAAAAAAAAAAAAAAAAAAAAAAAAAAAAAAAAAAAAAAAAAAAAAAAAAAAAAAAAAAAAAAAAAAAAAAAAAAAAAAAAAAAAAAAAAAAAAAAAAAAAAAAAAAAAAAAAAAAAAAAAAAAAAAAAAAAAAAAAAAAAAAAAAAAAAAAAAAAAAAAAAAAAAAAAAAAAAAAAAAAAAAAAAAAAAAAAAAAAAAAAAAAAAAAAAAAAAAAAAAAAAAAAAAAAAAAAAAAAAAAAAAAAAAAAAAAAAAAAAAAAAAAAAAAAAAAAAAAAAAAAAAAAAAAAAAAAAAAAAAAAAAAAAAAAAAAAAAAAAAAAAAAAAAAAAAAAAAAAAAAAAAAAAAAAAAAAAAAAAAAAAAAAAAAAAAAAAAAAAAAAAAAAAAAAAAAAAAAAAAAAAAAAAAAAAAAAAAAAAAAAAAAAAAAAAAAAAAAAAAAAAAAAAAAAAAAAAAAAAAAAAAAAAAAAAAAAAAAAAAAAAAAAAAAAAAAAAAAAAAAAAAAAAAAAAAAAAAAAAAAAAAAAAAAAAAAAAAAAAAAAAAAAAAAAAAAAAAAAAAAAAAAAAAAAAAAAAAAAAAAAAAAAAAAAAAAAAAAAAAAAAAAAAAAAAAAAAAAAAAAAAAAAAAAAAAAAAAAAAAAAAAAAAAAAAAAAAAAAAAAAAAAAAAAAAAAAAAAAAAAAAAAAAAAAAAAAAAAAAAAAAAAAAAAAAAAAAAAAAAAAAAAAAAAAAAAAAAAAAAAAAAAAAAAAA/9k=;imageBorder=default;" vertex="1" parent="1">
          <mxGeometry x="80" y="480" width="160" height="82.93" as="geometry" />
        </mxCell>
        <mxCell id="jcSyX-Xs3CRRQOm1wfht-16" value="" style="rounded=0;whiteSpace=wrap;html=1;opacity=10;strokeWidth=2;perimeterSpacing=2;dashed=1;dashPattern=8 8;gradientColor=default;" vertex="1" parent="1">
          <mxGeometry x="320" y="120" width="520" height="480" as="geometry" />
        </mxCell>
        <mxCell id="jcSyX-Xs3CRRQOm1wfht-19" value="" style="rounded=0;whiteSpace=wrap;html=1;opacity=10;gradientColor=default;" vertex="1" parent="1">
          <mxGeometry x="40" y="120" width="240" height="480" as="geometry" />
        </mxCell>
        <mxCell id="jcSyX-Xs3CRRQOm1wfht-21" value="&lt;font style=&quot;font-size: 20px;&quot;&gt;Client Apps&lt;/font&gt;" style="text;html=1;align=center;verticalAlign=middle;whiteSpace=wrap;rounded=0;" vertex="1" parent="1">
          <mxGeometry x="50" y="130" width="220" height="70" as="geometry" />
        </mxCell>
      </root>
    </mxGraphModel>
  </diagram>
</mxfile>
